<svg xmlns="http://www.w3.org/2000/svg" xmlns:xlink="http://www.w3.org/1999/xlink" width="1024" zoomAndPan="magnify" viewBox="0 0 768 767.999994" height="1024" preserveAspectRatio="xMidYMid meet" version="1.0"><path fill="#f2f0f0" d="M 0 0.0742188 L 23.984375 0.0742188 L 23.984375 24.070312 L 0 24.070312 Z M 0 0.0742188 " fill-opacity="1" fill-rule="nonzero"/><path fill="#f2f0f0" d="M 48.039062 0.0742188 L 72.023438 0.0742188 L 72.023438 24.070312 L 48.039062 24.070312 Z M 48.039062 0.0742188 " fill-opacity="1" fill-rule="nonzero"/><path fill="#f2f0f0" d="M 96.007812 0.0742188 L 119.992188 0.0742188 L 119.992188 24.070312 L 96.007812 24.070312 Z M 96.007812 0.0742188 " fill-opacity="1" fill-rule="nonzero"/><path fill="#f2f0f0" d="M 24.054688 24.070312 L 48.039062 24.070312 L 48.039062 48.0625 L 24.054688 48.0625 Z M 24.054688 24.070312 " fill-opacity="1" fill-rule="nonzero"/><path fill="#f2f0f0" d="M 72.023438 24.070312 L 96.007812 24.070312 L 96.007812 48.0625 L 72.023438 48.0625 Z M 72.023438 24.070312 " fill-opacity="1" fill-rule="nonzero"/><path fill="#f2f0f0" d="M 119.992188 24.070312 L 143.976562 24.070312 L 143.976562 48.0625 L 119.992188 48.0625 Z M 119.992188 24.070312 " fill-opacity="1" fill-rule="nonzero"/><path fill="#f2f0f0" d="M 0 48.136719 L 23.984375 48.136719 L 23.984375 72.128906 L 0 72.128906 Z M 0 48.136719 " fill-opacity="1" fill-rule="nonzero"/><path fill="#f2f0f0" d="M 48.039062 48.136719 L 72.023438 48.136719 L 72.023438 72.128906 L 48.039062 72.128906 Z M 48.039062 48.136719 " fill-opacity="1" fill-rule="nonzero"/><path fill="#f2f0f0" d="M 96.007812 48.136719 L 119.992188 48.136719 L 119.992188 72.128906 L 96.007812 72.128906 Z M 96.007812 48.136719 " fill-opacity="1" fill-rule="nonzero"/><path fill="#f2f0f0" d="M 24.054688 72.128906 L 48.039062 72.128906 L 48.039062 96.125 L 24.054688 96.125 Z M 24.054688 72.128906 " fill-opacity="1" fill-rule="nonzero"/><path fill="#f2f0f0" d="M 72.023438 72.128906 L 96.007812 72.128906 L 96.007812 96.125 L 72.023438 96.125 Z M 72.023438 72.128906 " fill-opacity="1" fill-rule="nonzero"/><path fill="#f2f0f0" d="M 119.992188 72.128906 L 143.976562 72.128906 L 143.976562 96.125 L 119.992188 96.125 Z M 119.992188 72.128906 " fill-opacity="1" fill-rule="nonzero"/><path fill="#f2f0f0" d="M 0 96.125 L 23.984375 96.125 L 23.984375 120.117188 L 0 120.117188 Z M 0 96.125 " fill-opacity="1" fill-rule="nonzero"/><path fill="#f2f0f0" d="M 48.039062 96.125 L 72.023438 96.125 L 72.023438 120.117188 L 48.039062 120.117188 Z M 48.039062 96.125 " fill-opacity="1" fill-rule="nonzero"/><path fill="#f2f0f0" d="M 96.007812 96.125 L 119.992188 96.125 L 119.992188 120.117188 L 96.007812 120.117188 Z M 96.007812 96.125 " fill-opacity="1" fill-rule="nonzero"/><path fill="#f2f0f0" d="M 24.054688 120.191406 L 48.039062 120.191406 L 48.039062 144.183594 L 24.054688 144.183594 Z M 24.054688 120.191406 " fill-opacity="1" fill-rule="nonzero"/><path fill="#f2f0f0" d="M 72.023438 120.191406 L 96.007812 120.191406 L 96.007812 144.183594 L 72.023438 144.183594 Z M 72.023438 120.191406 " fill-opacity="1" fill-rule="nonzero"/><path fill="#f2f0f0" d="M 119.992188 120.191406 L 143.976562 120.191406 L 143.976562 144.183594 L 119.992188 144.183594 Z M 119.992188 120.191406 " fill-opacity="1" fill-rule="nonzero"/><path fill="#f2f0f0" d="M 0 144.183594 L 23.984375 144.183594 L 23.984375 168.179688 L 0 168.179688 Z M 0 144.183594 " fill-opacity="1" fill-rule="nonzero"/><path fill="#f2f0f0" d="M 48.039062 144.183594 L 72.023438 144.183594 L 72.023438 168.179688 L 48.039062 168.179688 Z M 48.039062 144.183594 " fill-opacity="1" fill-rule="nonzero"/><path fill="#f2f0f0" d="M 96.007812 144.183594 L 119.992188 144.183594 L 119.992188 168.179688 L 96.007812 168.179688 Z M 96.007812 144.183594 " fill-opacity="1" fill-rule="nonzero"/><path fill="#f2f0f0" d="M 24.054688 168.179688 L 48.039062 168.179688 L 48.039062 192.171875 L 24.054688 192.171875 Z M 24.054688 168.179688 " fill-opacity="1" fill-rule="nonzero"/><path fill="#f2f0f0" d="M 72.023438 168.179688 L 96.007812 168.179688 L 96.007812 192.171875 L 72.023438 192.171875 Z M 72.023438 168.179688 " fill-opacity="1" fill-rule="nonzero"/><path fill="#f2f0f0" d="M 119.992188 168.179688 L 143.976562 168.179688 L 143.976562 192.171875 L 119.992188 192.171875 Z M 119.992188 168.179688 " fill-opacity="1" fill-rule="nonzero"/><path fill="#f2f0f0" d="M 144.050781 0.0742188 L 168.035156 0.0742188 L 168.035156 24.070312 L 144.050781 24.070312 Z M 144.050781 0.0742188 " fill-opacity="1" fill-rule="nonzero"/><path fill="#f2f0f0" d="M 192.019531 0.0742188 L 216.003906 0.0742188 L 216.003906 24.070312 L 192.019531 24.070312 Z M 192.019531 0.0742188 " fill-opacity="1" fill-rule="nonzero"/><path fill="#f2f0f0" d="M 239.988281 0.0742188 L 263.96875 0.0742188 L 263.96875 24.070312 L 239.988281 24.070312 Z M 239.988281 0.0742188 " fill-opacity="1" fill-rule="nonzero"/><path fill="#f2f0f0" d="M 168.035156 24.070312 L 192.019531 24.070312 L 192.019531 48.0625 L 168.035156 48.0625 Z M 168.035156 24.070312 " fill-opacity="1" fill-rule="nonzero"/><path fill="#f2f0f0" d="M 216.003906 24.070312 L 239.988281 24.070312 L 239.988281 48.0625 L 216.003906 48.0625 Z M 216.003906 24.070312 " fill-opacity="1" fill-rule="nonzero"/><path fill="#f2f0f0" d="M 264.042969 24.070312 L 288.027344 24.070312 L 288.027344 48.0625 L 264.042969 48.0625 Z M 264.042969 24.070312 " fill-opacity="1" fill-rule="nonzero"/><path fill="#f2f0f0" d="M 144.050781 48.136719 L 168.035156 48.136719 L 168.035156 72.128906 L 144.050781 72.128906 Z M 144.050781 48.136719 " fill-opacity="1" fill-rule="nonzero"/><path fill="#f2f0f0" d="M 192.019531 48.136719 L 216.003906 48.136719 L 216.003906 72.128906 L 192.019531 72.128906 Z M 192.019531 48.136719 " fill-opacity="1" fill-rule="nonzero"/><path fill="#f2f0f0" d="M 239.988281 48.136719 L 263.96875 48.136719 L 263.96875 72.128906 L 239.988281 72.128906 Z M 239.988281 48.136719 " fill-opacity="1" fill-rule="nonzero"/><path fill="#f2f0f0" d="M 168.035156 72.128906 L 192.019531 72.128906 L 192.019531 96.125 L 168.035156 96.125 Z M 168.035156 72.128906 " fill-opacity="1" fill-rule="nonzero"/><path fill="#f2f0f0" d="M 216.003906 72.128906 L 239.988281 72.128906 L 239.988281 96.125 L 216.003906 96.125 Z M 216.003906 72.128906 " fill-opacity="1" fill-rule="nonzero"/><path fill="#f2f0f0" d="M 264.042969 72.128906 L 288.027344 72.128906 L 288.027344 96.125 L 264.042969 96.125 Z M 264.042969 72.128906 " fill-opacity="1" fill-rule="nonzero"/><path fill="#f2f0f0" d="M 144.050781 96.125 L 168.035156 96.125 L 168.035156 120.117188 L 144.050781 120.117188 Z M 144.050781 96.125 " fill-opacity="1" fill-rule="nonzero"/><path fill="#f2f0f0" d="M 192.019531 96.125 L 216.003906 96.125 L 216.003906 120.117188 L 192.019531 120.117188 Z M 192.019531 96.125 " fill-opacity="1" fill-rule="nonzero"/><path fill="#f2f0f0" d="M 239.988281 96.125 L 263.96875 96.125 L 263.96875 120.117188 L 239.988281 120.117188 Z M 239.988281 96.125 " fill-opacity="1" fill-rule="nonzero"/><path fill="#f2f0f0" d="M 168.035156 120.191406 L 192.019531 120.191406 L 192.019531 144.183594 L 168.035156 144.183594 Z M 168.035156 120.191406 " fill-opacity="1" fill-rule="nonzero"/><path fill="#f2f0f0" d="M 216.003906 120.191406 L 239.988281 120.191406 L 239.988281 144.183594 L 216.003906 144.183594 Z M 216.003906 120.191406 " fill-opacity="1" fill-rule="nonzero"/><path fill="#f2f0f0" d="M 264.042969 120.191406 L 288.027344 120.191406 L 288.027344 144.183594 L 264.042969 144.183594 Z M 264.042969 120.191406 " fill-opacity="1" fill-rule="nonzero"/><path fill="#f2f0f0" d="M 144.050781 144.183594 L 168.035156 144.183594 L 168.035156 168.179688 L 144.050781 168.179688 Z M 144.050781 144.183594 " fill-opacity="1" fill-rule="nonzero"/><path fill="#f2f0f0" d="M 192.019531 144.183594 L 216.003906 144.183594 L 216.003906 168.179688 L 192.019531 168.179688 Z M 192.019531 144.183594 " fill-opacity="1" fill-rule="nonzero"/><path fill="#f2f0f0" d="M 239.988281 144.183594 L 263.96875 144.183594 L 263.96875 168.179688 L 239.988281 168.179688 Z M 239.988281 144.183594 " fill-opacity="1" fill-rule="nonzero"/><path fill="#f2f0f0" d="M 168.035156 168.179688 L 192.019531 168.179688 L 192.019531 192.171875 L 168.035156 192.171875 Z M 168.035156 168.179688 " fill-opacity="1" fill-rule="nonzero"/><path fill="#f2f0f0" d="M 216.003906 168.179688 L 239.988281 168.179688 L 239.988281 192.171875 L 216.003906 192.171875 Z M 216.003906 168.179688 " fill-opacity="1" fill-rule="nonzero"/><path fill="#f2f0f0" d="M 264.042969 168.179688 L 288.027344 168.179688 L 288.027344 192.171875 L 264.042969 192.171875 Z M 264.042969 168.179688 " fill-opacity="1" fill-rule="nonzero"/><path fill="#f2f0f0" d="M 288.027344 0.0742188 L 312.011719 0.0742188 L 312.011719 24.070312 L 288.027344 24.070312 Z M 288.027344 0.0742188 " fill-opacity="1" fill-rule="nonzero"/><path fill="#f2f0f0" d="M 335.996094 0.0742188 L 359.980469 0.0742188 L 359.980469 24.070312 L 335.996094 24.070312 Z M 335.996094 0.0742188 " fill-opacity="1" fill-rule="nonzero"/><path fill="#f2f0f0" d="M 384.035156 0.0742188 L 408.019531 0.0742188 L 408.019531 24.070312 L 384.035156 24.070312 Z M 384.035156 0.0742188 " fill-opacity="1" fill-rule="nonzero"/><path fill="#f2f0f0" d="M 312.011719 24.070312 L 335.996094 24.070312 L 335.996094 48.0625 L 312.011719 48.0625 Z M 312.011719 24.070312 " fill-opacity="1" fill-rule="nonzero"/><path fill="#f2f0f0" d="M 360.050781 24.070312 L 384.035156 24.070312 L 384.035156 48.0625 L 360.050781 48.0625 Z M 360.050781 24.070312 " fill-opacity="1" fill-rule="nonzero"/><path fill="#f2f0f0" d="M 408.019531 24.070312 L 432.003906 24.070312 L 432.003906 48.0625 L 408.019531 48.0625 Z M 408.019531 24.070312 " fill-opacity="1" fill-rule="nonzero"/><path fill="#f2f0f0" d="M 288.027344 48.136719 L 312.011719 48.136719 L 312.011719 72.128906 L 288.027344 72.128906 Z M 288.027344 48.136719 " fill-opacity="1" fill-rule="nonzero"/><path fill="#f2f0f0" d="M 335.996094 48.136719 L 359.980469 48.136719 L 359.980469 72.128906 L 335.996094 72.128906 Z M 335.996094 48.136719 " fill-opacity="1" fill-rule="nonzero"/><path fill="#f2f0f0" d="M 384.035156 48.136719 L 408.019531 48.136719 L 408.019531 72.128906 L 384.035156 72.128906 Z M 384.035156 48.136719 " fill-opacity="1" fill-rule="nonzero"/><path fill="#f2f0f0" d="M 312.011719 72.128906 L 335.996094 72.128906 L 335.996094 96.125 L 312.011719 96.125 Z M 312.011719 72.128906 " fill-opacity="1" fill-rule="nonzero"/><path fill="#f2f0f0" d="M 360.050781 72.128906 L 384.035156 72.128906 L 384.035156 96.125 L 360.050781 96.125 Z M 360.050781 72.128906 " fill-opacity="1" fill-rule="nonzero"/><path fill="#f2f0f0" d="M 408.019531 72.128906 L 432.003906 72.128906 L 432.003906 96.125 L 408.019531 96.125 Z M 408.019531 72.128906 " fill-opacity="1" fill-rule="nonzero"/><path fill="#f2f0f0" d="M 288.027344 96.125 L 312.011719 96.125 L 312.011719 120.117188 L 288.027344 120.117188 Z M 288.027344 96.125 " fill-opacity="1" fill-rule="nonzero"/><path fill="#f2f0f0" d="M 335.996094 96.125 L 359.980469 96.125 L 359.980469 120.117188 L 335.996094 120.117188 Z M 335.996094 96.125 " fill-opacity="1" fill-rule="nonzero"/><path fill="#f2f0f0" d="M 384.035156 96.125 L 408.019531 96.125 L 408.019531 120.117188 L 384.035156 120.117188 Z M 384.035156 96.125 " fill-opacity="1" fill-rule="nonzero"/><path fill="#f2f0f0" d="M 312.011719 120.191406 L 335.996094 120.191406 L 335.996094 144.183594 L 312.011719 144.183594 Z M 312.011719 120.191406 " fill-opacity="1" fill-rule="nonzero"/><path fill="#f2f0f0" d="M 360.050781 120.191406 L 384.035156 120.191406 L 384.035156 144.183594 L 360.050781 144.183594 Z M 360.050781 120.191406 " fill-opacity="1" fill-rule="nonzero"/><path fill="#f2f0f0" d="M 408.019531 120.191406 L 432.003906 120.191406 L 432.003906 144.183594 L 408.019531 144.183594 Z M 408.019531 120.191406 " fill-opacity="1" fill-rule="nonzero"/><path fill="#f2f0f0" d="M 288.027344 144.183594 L 312.011719 144.183594 L 312.011719 168.179688 L 288.027344 168.179688 Z M 288.027344 144.183594 " fill-opacity="1" fill-rule="nonzero"/><path fill="#f2f0f0" d="M 335.996094 144.183594 L 359.980469 144.183594 L 359.980469 168.179688 L 335.996094 168.179688 Z M 335.996094 144.183594 " fill-opacity="1" fill-rule="nonzero"/><path fill="#f2f0f0" d="M 384.035156 144.183594 L 408.019531 144.183594 L 408.019531 168.179688 L 384.035156 168.179688 Z M 384.035156 144.183594 " fill-opacity="1" fill-rule="nonzero"/><path fill="#f2f0f0" d="M 312.011719 168.179688 L 335.996094 168.179688 L 335.996094 192.171875 L 312.011719 192.171875 Z M 312.011719 168.179688 " fill-opacity="1" fill-rule="nonzero"/><path fill="#f2f0f0" d="M 360.050781 168.179688 L 384.035156 168.179688 L 384.035156 192.171875 L 360.050781 192.171875 Z M 360.050781 168.179688 " fill-opacity="1" fill-rule="nonzero"/><path fill="#f2f0f0" d="M 408.019531 168.179688 L 432.003906 168.179688 L 432.003906 192.171875 L 408.019531 192.171875 Z M 408.019531 168.179688 " fill-opacity="1" fill-rule="nonzero"/><path fill="#f2f0f0" d="M 432.003906 0.0742188 L 455.988281 0.0742188 L 455.988281 24.070312 L 432.003906 24.070312 Z M 432.003906 0.0742188 " fill-opacity="1" fill-rule="nonzero"/><path fill="#f2f0f0" d="M 480.046875 0.0742188 L 504.027344 0.0742188 L 504.027344 24.070312 L 480.046875 24.070312 Z M 480.046875 0.0742188 " fill-opacity="1" fill-rule="nonzero"/><path fill="#f2f0f0" d="M 528.011719 0.0742188 L 551.996094 0.0742188 L 551.996094 24.070312 L 528.011719 24.070312 Z M 528.011719 0.0742188 " fill-opacity="1" fill-rule="nonzero"/><path fill="#f2f0f0" d="M 456.0625 24.070312 L 480.046875 24.070312 L 480.046875 48.0625 L 456.0625 48.0625 Z M 456.0625 24.070312 " fill-opacity="1" fill-rule="nonzero"/><path fill="#f2f0f0" d="M 504.027344 24.070312 L 528.011719 24.070312 L 528.011719 48.0625 L 504.027344 48.0625 Z M 504.027344 24.070312 " fill-opacity="1" fill-rule="nonzero"/><path fill="#f2f0f0" d="M 551.996094 24.070312 L 575.980469 24.070312 L 575.980469 48.0625 L 551.996094 48.0625 Z M 551.996094 24.070312 " fill-opacity="1" fill-rule="nonzero"/><path fill="#f2f0f0" d="M 432.003906 48.136719 L 455.988281 48.136719 L 455.988281 72.128906 L 432.003906 72.128906 Z M 432.003906 48.136719 " fill-opacity="1" fill-rule="nonzero"/><path fill="#f2f0f0" d="M 480.046875 48.136719 L 504.027344 48.136719 L 504.027344 72.128906 L 480.046875 72.128906 Z M 480.046875 48.136719 " fill-opacity="1" fill-rule="nonzero"/><path fill="#f2f0f0" d="M 528.011719 48.136719 L 551.996094 48.136719 L 551.996094 72.128906 L 528.011719 72.128906 Z M 528.011719 48.136719 " fill-opacity="1" fill-rule="nonzero"/><path fill="#f2f0f0" d="M 456.0625 72.128906 L 480.046875 72.128906 L 480.046875 96.125 L 456.0625 96.125 Z M 456.0625 72.128906 " fill-opacity="1" fill-rule="nonzero"/><path fill="#f2f0f0" d="M 504.027344 72.128906 L 528.011719 72.128906 L 528.011719 96.125 L 504.027344 96.125 Z M 504.027344 72.128906 " fill-opacity="1" fill-rule="nonzero"/><path fill="#f2f0f0" d="M 551.996094 72.128906 L 575.980469 72.128906 L 575.980469 96.125 L 551.996094 96.125 Z M 551.996094 72.128906 " fill-opacity="1" fill-rule="nonzero"/><path fill="#f2f0f0" d="M 432.003906 96.125 L 455.988281 96.125 L 455.988281 120.117188 L 432.003906 120.117188 Z M 432.003906 96.125 " fill-opacity="1" fill-rule="nonzero"/><path fill="#f2f0f0" d="M 480.046875 96.125 L 504.027344 96.125 L 504.027344 120.117188 L 480.046875 120.117188 Z M 480.046875 96.125 " fill-opacity="1" fill-rule="nonzero"/><path fill="#f2f0f0" d="M 528.011719 96.125 L 551.996094 96.125 L 551.996094 120.117188 L 528.011719 120.117188 Z M 528.011719 96.125 " fill-opacity="1" fill-rule="nonzero"/><path fill="#f2f0f0" d="M 456.0625 120.191406 L 480.046875 120.191406 L 480.046875 144.183594 L 456.0625 144.183594 Z M 456.0625 120.191406 " fill-opacity="1" fill-rule="nonzero"/><path fill="#f2f0f0" d="M 504.027344 120.191406 L 528.011719 120.191406 L 528.011719 144.183594 L 504.027344 144.183594 Z M 504.027344 120.191406 " fill-opacity="1" fill-rule="nonzero"/><path fill="#f2f0f0" d="M 551.996094 120.191406 L 575.980469 120.191406 L 575.980469 144.183594 L 551.996094 144.183594 Z M 551.996094 120.191406 " fill-opacity="1" fill-rule="nonzero"/><path fill="#f2f0f0" d="M 432.003906 144.183594 L 455.988281 144.183594 L 455.988281 168.179688 L 432.003906 168.179688 Z M 432.003906 144.183594 " fill-opacity="1" fill-rule="nonzero"/><path fill="#f2f0f0" d="M 480.046875 144.183594 L 504.027344 144.183594 L 504.027344 168.179688 L 480.046875 168.179688 Z M 480.046875 144.183594 " fill-opacity="1" fill-rule="nonzero"/><path fill="#f2f0f0" d="M 528.011719 144.183594 L 551.996094 144.183594 L 551.996094 168.179688 L 528.011719 168.179688 Z M 528.011719 144.183594 " fill-opacity="1" fill-rule="nonzero"/><path fill="#f2f0f0" d="M 456.0625 168.179688 L 480.046875 168.179688 L 480.046875 192.171875 L 456.0625 192.171875 Z M 456.0625 168.179688 " fill-opacity="1" fill-rule="nonzero"/><path fill="#f2f0f0" d="M 504.027344 168.179688 L 528.011719 168.179688 L 528.011719 192.171875 L 504.027344 192.171875 Z M 504.027344 168.179688 " fill-opacity="1" fill-rule="nonzero"/><path fill="#f2f0f0" d="M 551.996094 168.179688 L 575.980469 168.179688 L 575.980469 192.171875 L 551.996094 192.171875 Z M 551.996094 168.179688 " fill-opacity="1" fill-rule="nonzero"/><path fill="#f2f0f0" d="M 576.054688 0.0742188 L 600.039062 0.0742188 L 600.039062 24.070312 L 576.054688 24.070312 Z M 576.054688 0.0742188 " fill-opacity="1" fill-rule="nonzero"/><path fill="#f2f0f0" d="M 624.023438 0.0742188 L 648.007812 0.0742188 L 648.007812 24.070312 L 624.023438 24.070312 Z M 624.023438 0.0742188 " fill-opacity="1" fill-rule="nonzero"/><path fill="#f2f0f0" d="M 671.992188 0.0742188 L 695.976562 0.0742188 L 695.976562 24.070312 L 671.992188 24.070312 Z M 671.992188 0.0742188 " fill-opacity="1" fill-rule="nonzero"/><path fill="#f2f0f0" d="M 600.039062 24.070312 L 624.023438 24.070312 L 624.023438 48.0625 L 600.039062 48.0625 Z M 600.039062 24.070312 " fill-opacity="1" fill-rule="nonzero"/><path fill="#f2f0f0" d="M 648.007812 24.070312 L 671.992188 24.070312 L 671.992188 48.0625 L 648.007812 48.0625 Z M 648.007812 24.070312 " fill-opacity="1" fill-rule="nonzero"/><path fill="#f2f0f0" d="M 696.046875 24.070312 L 720.03125 24.070312 L 720.03125 48.0625 L 696.046875 48.0625 Z M 696.046875 24.070312 " fill-opacity="1" fill-rule="nonzero"/><path fill="#f2f0f0" d="M 576.054688 48.136719 L 600.039062 48.136719 L 600.039062 72.128906 L 576.054688 72.128906 Z M 576.054688 48.136719 " fill-opacity="1" fill-rule="nonzero"/><path fill="#f2f0f0" d="M 624.023438 48.136719 L 648.007812 48.136719 L 648.007812 72.128906 L 624.023438 72.128906 Z M 624.023438 48.136719 " fill-opacity="1" fill-rule="nonzero"/><path fill="#f2f0f0" d="M 671.992188 48.136719 L 695.976562 48.136719 L 695.976562 72.128906 L 671.992188 72.128906 Z M 671.992188 48.136719 " fill-opacity="1" fill-rule="nonzero"/><path fill="#f2f0f0" d="M 600.039062 72.128906 L 624.023438 72.128906 L 624.023438 96.125 L 600.039062 96.125 Z M 600.039062 72.128906 " fill-opacity="1" fill-rule="nonzero"/><path fill="#f2f0f0" d="M 648.007812 72.128906 L 671.992188 72.128906 L 671.992188 96.125 L 648.007812 96.125 Z M 648.007812 72.128906 " fill-opacity="1" fill-rule="nonzero"/><path fill="#f2f0f0" d="M 696.046875 72.128906 L 720.03125 72.128906 L 720.03125 96.125 L 696.046875 96.125 Z M 696.046875 72.128906 " fill-opacity="1" fill-rule="nonzero"/><path fill="#f2f0f0" d="M 576.054688 96.125 L 600.039062 96.125 L 600.039062 120.117188 L 576.054688 120.117188 Z M 576.054688 96.125 " fill-opacity="1" fill-rule="nonzero"/><path fill="#f2f0f0" d="M 624.023438 96.125 L 648.007812 96.125 L 648.007812 120.117188 L 624.023438 120.117188 Z M 624.023438 96.125 " fill-opacity="1" fill-rule="nonzero"/><path fill="#f2f0f0" d="M 671.992188 96.125 L 695.976562 96.125 L 695.976562 120.117188 L 671.992188 120.117188 Z M 671.992188 96.125 " fill-opacity="1" fill-rule="nonzero"/><path fill="#f2f0f0" d="M 600.039062 120.191406 L 624.023438 120.191406 L 624.023438 144.183594 L 600.039062 144.183594 Z M 600.039062 120.191406 " fill-opacity="1" fill-rule="nonzero"/><path fill="#f2f0f0" d="M 648.007812 120.191406 L 671.992188 120.191406 L 671.992188 144.183594 L 648.007812 144.183594 Z M 648.007812 120.191406 " fill-opacity="1" fill-rule="nonzero"/><path fill="#f2f0f0" d="M 696.046875 120.191406 L 720.03125 120.191406 L 720.03125 144.183594 L 696.046875 144.183594 Z M 696.046875 120.191406 " fill-opacity="1" fill-rule="nonzero"/><path fill="#f2f0f0" d="M 576.054688 144.183594 L 600.039062 144.183594 L 600.039062 168.179688 L 576.054688 168.179688 Z M 576.054688 144.183594 " fill-opacity="1" fill-rule="nonzero"/><path fill="#f2f0f0" d="M 624.023438 144.183594 L 648.007812 144.183594 L 648.007812 168.179688 L 624.023438 168.179688 Z M 624.023438 144.183594 " fill-opacity="1" fill-rule="nonzero"/><path fill="#f2f0f0" d="M 671.992188 144.183594 L 695.976562 144.183594 L 695.976562 168.179688 L 671.992188 168.179688 Z M 671.992188 144.183594 " fill-opacity="1" fill-rule="nonzero"/><path fill="#f2f0f0" d="M 600.039062 168.179688 L 624.023438 168.179688 L 624.023438 192.171875 L 600.039062 192.171875 Z M 600.039062 168.179688 " fill-opacity="1" fill-rule="nonzero"/><path fill="#f2f0f0" d="M 648.007812 168.179688 L 671.992188 168.179688 L 671.992188 192.171875 L 648.007812 192.171875 Z M 648.007812 168.179688 " fill-opacity="1" fill-rule="nonzero"/><path fill="#f2f0f0" d="M 696.046875 168.179688 L 720.03125 168.179688 L 720.03125 192.171875 L 696.046875 192.171875 Z M 696.046875 168.179688 " fill-opacity="1" fill-rule="nonzero"/><path fill="#f2f0f0" d="M 720.03125 0.0742188 L 744.015625 0.0742188 L 744.015625 24.070312 L 720.03125 24.070312 Z M 720.03125 0.0742188 " fill-opacity="1" fill-rule="nonzero"/><path fill="#f2f0f0" d="M 744.015625 24.070312 L 768 24.070312 L 768 48.0625 L 744.015625 48.0625 Z M 744.015625 24.070312 " fill-opacity="1" fill-rule="nonzero"/><path fill="#f2f0f0" d="M 720.03125 48.136719 L 744.015625 48.136719 L 744.015625 72.128906 L 720.03125 72.128906 Z M 720.03125 48.136719 " fill-opacity="1" fill-rule="nonzero"/><path fill="#f2f0f0" d="M 744.015625 72.128906 L 768 72.128906 L 768 96.125 L 744.015625 96.125 Z M 744.015625 72.128906 " fill-opacity="1" fill-rule="nonzero"/><path fill="#f2f0f0" d="M 720.03125 96.125 L 744.015625 96.125 L 744.015625 120.117188 L 720.03125 120.117188 Z M 720.03125 96.125 " fill-opacity="1" fill-rule="nonzero"/><path fill="#f2f0f0" d="M 744.015625 120.191406 L 768 120.191406 L 768 144.183594 L 744.015625 144.183594 Z M 744.015625 120.191406 " fill-opacity="1" fill-rule="nonzero"/><path fill="#f2f0f0" d="M 720.03125 144.183594 L 744.015625 144.183594 L 744.015625 168.179688 L 720.03125 168.179688 Z M 720.03125 144.183594 " fill-opacity="1" fill-rule="nonzero"/><path fill="#f2f0f0" d="M 744.015625 168.179688 L 768 168.179688 L 768 192.171875 L 744.015625 192.171875 Z M 744.015625 168.179688 " fill-opacity="1" fill-rule="nonzero"/><path fill="#f2f0f0" d="M 0 192.246094 L 23.984375 192.246094 L 23.984375 216.238281 L 0 216.238281 Z M 0 192.246094 " fill-opacity="1" fill-rule="nonzero"/><path fill="#f2f0f0" d="M 48.039062 192.246094 L 72.023438 192.246094 L 72.023438 216.238281 L 48.039062 216.238281 Z M 48.039062 192.246094 " fill-opacity="1" fill-rule="nonzero"/><path fill="#f2f0f0" d="M 96.007812 192.246094 L 119.992188 192.246094 L 119.992188 216.238281 L 96.007812 216.238281 Z M 96.007812 192.246094 " fill-opacity="1" fill-rule="nonzero"/><path fill="#f2f0f0" d="M 24.054688 216.238281 L 48.039062 216.238281 L 48.039062 240.234375 L 24.054688 240.234375 Z M 24.054688 216.238281 " fill-opacity="1" fill-rule="nonzero"/><path fill="#f2f0f0" d="M 72.023438 216.238281 L 96.007812 216.238281 L 96.007812 240.234375 L 72.023438 240.234375 Z M 72.023438 216.238281 " fill-opacity="1" fill-rule="nonzero"/><path fill="#f2f0f0" d="M 119.992188 216.238281 L 143.976562 216.238281 L 143.976562 240.234375 L 119.992188 240.234375 Z M 119.992188 216.238281 " fill-opacity="1" fill-rule="nonzero"/><path fill="#f2f0f0" d="M 0 240.234375 L 23.984375 240.234375 L 23.984375 264.226562 L 0 264.226562 Z M 0 240.234375 " fill-opacity="1" fill-rule="nonzero"/><path fill="#f2f0f0" d="M 48.039062 240.234375 L 72.023438 240.234375 L 72.023438 264.226562 L 48.039062 264.226562 Z M 48.039062 240.234375 " fill-opacity="1" fill-rule="nonzero"/><path fill="#f2f0f0" d="M 96.007812 240.234375 L 119.992188 240.234375 L 119.992188 264.226562 L 96.007812 264.226562 Z M 96.007812 240.234375 " fill-opacity="1" fill-rule="nonzero"/><path fill="#f2f0f0" d="M 24.054688 264.300781 L 48.039062 264.300781 L 48.039062 288.292969 L 24.054688 288.292969 Z M 24.054688 264.300781 " fill-opacity="1" fill-rule="nonzero"/><path fill="#f2f0f0" d="M 72.023438 264.300781 L 96.007812 264.300781 L 96.007812 288.292969 L 72.023438 288.292969 Z M 72.023438 264.300781 " fill-opacity="1" fill-rule="nonzero"/><path fill="#f2f0f0" d="M 119.992188 264.300781 L 143.976562 264.300781 L 143.976562 288.292969 L 119.992188 288.292969 Z M 119.992188 264.300781 " fill-opacity="1" fill-rule="nonzero"/><path fill="#f2f0f0" d="M 0 288.292969 L 23.984375 288.292969 L 23.984375 312.289062 L 0 312.289062 Z M 0 288.292969 " fill-opacity="1" fill-rule="nonzero"/><path fill="#f2f0f0" d="M 48.039062 288.292969 L 72.023438 288.292969 L 72.023438 312.289062 L 48.039062 312.289062 Z M 48.039062 288.292969 " fill-opacity="1" fill-rule="nonzero"/><path fill="#f2f0f0" d="M 96.007812 288.292969 L 119.992188 288.292969 L 119.992188 312.289062 L 96.007812 312.289062 Z M 96.007812 288.292969 " fill-opacity="1" fill-rule="nonzero"/><path fill="#f2f0f0" d="M 24.054688 312.289062 L 48.039062 312.289062 L 48.039062 336.28125 L 24.054688 336.28125 Z M 24.054688 312.289062 " fill-opacity="1" fill-rule="nonzero"/><path fill="#f2f0f0" d="M 72.023438 312.289062 L 96.007812 312.289062 L 96.007812 336.28125 L 72.023438 336.28125 Z M 72.023438 312.289062 " fill-opacity="1" fill-rule="nonzero"/><path fill="#f2f0f0" d="M 119.992188 312.289062 L 143.976562 312.289062 L 143.976562 336.28125 L 119.992188 336.28125 Z M 119.992188 312.289062 " fill-opacity="1" fill-rule="nonzero"/><path fill="#f2f0f0" d="M 0 336.351562 L 23.984375 336.351562 L 23.984375 360.347656 L 0 360.347656 Z M 0 336.351562 " fill-opacity="1" fill-rule="nonzero"/><path fill="#f2f0f0" d="M 48.039062 336.351562 L 72.023438 336.351562 L 72.023438 360.347656 L 48.039062 360.347656 Z M 48.039062 336.351562 " fill-opacity="1" fill-rule="nonzero"/><path fill="#f2f0f0" d="M 96.007812 336.351562 L 119.992188 336.351562 L 119.992188 360.347656 L 96.007812 360.347656 Z M 96.007812 336.351562 " fill-opacity="1" fill-rule="nonzero"/><path fill="#f2f0f0" d="M 24.054688 360.347656 L 48.039062 360.347656 L 48.039062 384.34375 L 24.054688 384.34375 Z M 24.054688 360.347656 " fill-opacity="1" fill-rule="nonzero"/><path fill="#f2f0f0" d="M 72.023438 360.347656 L 96.007812 360.347656 L 96.007812 384.34375 L 72.023438 384.34375 Z M 72.023438 360.347656 " fill-opacity="1" fill-rule="nonzero"/><path fill="#f2f0f0" d="M 119.992188 360.347656 L 143.976562 360.347656 L 143.976562 384.34375 L 119.992188 384.34375 Z M 119.992188 360.347656 " fill-opacity="1" fill-rule="nonzero"/><path fill="#f2f0f0" d="M 144.050781 192.246094 L 168.035156 192.246094 L 168.035156 216.238281 L 144.050781 216.238281 Z M 144.050781 192.246094 " fill-opacity="1" fill-rule="nonzero"/><path fill="#f2f0f0" d="M 192.019531 192.246094 L 216.003906 192.246094 L 216.003906 216.238281 L 192.019531 216.238281 Z M 192.019531 192.246094 " fill-opacity="1" fill-rule="nonzero"/><path fill="#f2f0f0" d="M 239.988281 192.246094 L 263.96875 192.246094 L 263.96875 216.238281 L 239.988281 216.238281 Z M 239.988281 192.246094 " fill-opacity="1" fill-rule="nonzero"/><path fill="#f2f0f0" d="M 168.035156 216.238281 L 192.019531 216.238281 L 192.019531 240.234375 L 168.035156 240.234375 Z M 168.035156 216.238281 " fill-opacity="1" fill-rule="nonzero"/><path fill="#f2f0f0" d="M 216.003906 216.238281 L 239.988281 216.238281 L 239.988281 240.234375 L 216.003906 240.234375 Z M 216.003906 216.238281 " fill-opacity="1" fill-rule="nonzero"/><path fill="#f2f0f0" d="M 264.042969 216.238281 L 288.027344 216.238281 L 288.027344 240.234375 L 264.042969 240.234375 Z M 264.042969 216.238281 " fill-opacity="1" fill-rule="nonzero"/><path fill="#f2f0f0" d="M 144.050781 240.234375 L 168.035156 240.234375 L 168.035156 264.226562 L 144.050781 264.226562 Z M 144.050781 240.234375 " fill-opacity="1" fill-rule="nonzero"/><path fill="#f2f0f0" d="M 192.019531 240.234375 L 216.003906 240.234375 L 216.003906 264.226562 L 192.019531 264.226562 Z M 192.019531 240.234375 " fill-opacity="1" fill-rule="nonzero"/><path fill="#f2f0f0" d="M 239.988281 240.234375 L 263.96875 240.234375 L 263.96875 264.226562 L 239.988281 264.226562 Z M 239.988281 240.234375 " fill-opacity="1" fill-rule="nonzero"/><path fill="#f2f0f0" d="M 168.035156 264.300781 L 192.019531 264.300781 L 192.019531 288.292969 L 168.035156 288.292969 Z M 168.035156 264.300781 " fill-opacity="1" fill-rule="nonzero"/><path fill="#f2f0f0" d="M 216.003906 264.300781 L 239.988281 264.300781 L 239.988281 288.292969 L 216.003906 288.292969 Z M 216.003906 264.300781 " fill-opacity="1" fill-rule="nonzero"/><path fill="#f2f0f0" d="M 264.042969 264.300781 L 288.027344 264.300781 L 288.027344 288.292969 L 264.042969 288.292969 Z M 264.042969 264.300781 " fill-opacity="1" fill-rule="nonzero"/><path fill="#f2f0f0" d="M 144.050781 288.292969 L 168.035156 288.292969 L 168.035156 312.289062 L 144.050781 312.289062 Z M 144.050781 288.292969 " fill-opacity="1" fill-rule="nonzero"/><path fill="#f2f0f0" d="M 192.019531 288.292969 L 216.003906 288.292969 L 216.003906 312.289062 L 192.019531 312.289062 Z M 192.019531 288.292969 " fill-opacity="1" fill-rule="nonzero"/><path fill="#f2f0f0" d="M 239.988281 288.292969 L 263.96875 288.292969 L 263.96875 312.289062 L 239.988281 312.289062 Z M 239.988281 288.292969 " fill-opacity="1" fill-rule="nonzero"/><path fill="#f2f0f0" d="M 168.035156 312.289062 L 192.019531 312.289062 L 192.019531 336.28125 L 168.035156 336.28125 Z M 168.035156 312.289062 " fill-opacity="1" fill-rule="nonzero"/><path fill="#f2f0f0" d="M 216.003906 312.289062 L 239.988281 312.289062 L 239.988281 336.28125 L 216.003906 336.28125 Z M 216.003906 312.289062 " fill-opacity="1" fill-rule="nonzero"/><path fill="#f2f0f0" d="M 264.042969 312.289062 L 288.027344 312.289062 L 288.027344 336.28125 L 264.042969 336.28125 Z M 264.042969 312.289062 " fill-opacity="1" fill-rule="nonzero"/><path fill="#f2f0f0" d="M 144.050781 336.351562 L 168.035156 336.351562 L 168.035156 360.347656 L 144.050781 360.347656 Z M 144.050781 336.351562 " fill-opacity="1" fill-rule="nonzero"/><path fill="#f2f0f0" d="M 192.019531 336.351562 L 216.003906 336.351562 L 216.003906 360.347656 L 192.019531 360.347656 Z M 192.019531 336.351562 " fill-opacity="1" fill-rule="nonzero"/><path fill="#f2f0f0" d="M 239.988281 336.351562 L 263.96875 336.351562 L 263.96875 360.347656 L 239.988281 360.347656 Z M 239.988281 336.351562 " fill-opacity="1" fill-rule="nonzero"/><path fill="#f2f0f0" d="M 168.035156 360.347656 L 192.019531 360.347656 L 192.019531 384.34375 L 168.035156 384.34375 Z M 168.035156 360.347656 " fill-opacity="1" fill-rule="nonzero"/><path fill="#f2f0f0" d="M 216.003906 360.347656 L 239.988281 360.347656 L 239.988281 384.34375 L 216.003906 384.34375 Z M 216.003906 360.347656 " fill-opacity="1" fill-rule="nonzero"/><path fill="#f2f0f0" d="M 264.042969 360.347656 L 288.027344 360.347656 L 288.027344 384.34375 L 264.042969 384.34375 Z M 264.042969 360.347656 " fill-opacity="1" fill-rule="nonzero"/><path fill="#f2f0f0" d="M 288.027344 192.246094 L 312.011719 192.246094 L 312.011719 216.238281 L 288.027344 216.238281 Z M 288.027344 192.246094 " fill-opacity="1" fill-rule="nonzero"/><path fill="#f2f0f0" d="M 335.996094 192.246094 L 359.980469 192.246094 L 359.980469 216.238281 L 335.996094 216.238281 Z M 335.996094 192.246094 " fill-opacity="1" fill-rule="nonzero"/><path fill="#f2f0f0" d="M 384.035156 192.246094 L 408.019531 192.246094 L 408.019531 216.238281 L 384.035156 216.238281 Z M 384.035156 192.246094 " fill-opacity="1" fill-rule="nonzero"/><path fill="#f2f0f0" d="M 312.011719 216.238281 L 335.996094 216.238281 L 335.996094 240.234375 L 312.011719 240.234375 Z M 312.011719 216.238281 " fill-opacity="1" fill-rule="nonzero"/><path fill="#f2f0f0" d="M 360.050781 216.238281 L 384.035156 216.238281 L 384.035156 240.234375 L 360.050781 240.234375 Z M 360.050781 216.238281 " fill-opacity="1" fill-rule="nonzero"/><path fill="#f2f0f0" d="M 408.019531 216.238281 L 432.003906 216.238281 L 432.003906 240.234375 L 408.019531 240.234375 Z M 408.019531 216.238281 " fill-opacity="1" fill-rule="nonzero"/><path fill="#f2f0f0" d="M 288.027344 240.234375 L 312.011719 240.234375 L 312.011719 264.226562 L 288.027344 264.226562 Z M 288.027344 240.234375 " fill-opacity="1" fill-rule="nonzero"/><path fill="#f2f0f0" d="M 335.996094 240.234375 L 359.980469 240.234375 L 359.980469 264.226562 L 335.996094 264.226562 Z M 335.996094 240.234375 " fill-opacity="1" fill-rule="nonzero"/><path fill="#f2f0f0" d="M 384.035156 240.234375 L 408.019531 240.234375 L 408.019531 264.226562 L 384.035156 264.226562 Z M 384.035156 240.234375 " fill-opacity="1" fill-rule="nonzero"/><path fill="#f2f0f0" d="M 312.011719 264.300781 L 335.996094 264.300781 L 335.996094 288.292969 L 312.011719 288.292969 Z M 312.011719 264.300781 " fill-opacity="1" fill-rule="nonzero"/><path fill="#f2f0f0" d="M 360.050781 264.300781 L 384.035156 264.300781 L 384.035156 288.292969 L 360.050781 288.292969 Z M 360.050781 264.300781 " fill-opacity="1" fill-rule="nonzero"/><path fill="#f2f0f0" d="M 408.019531 264.300781 L 432.003906 264.300781 L 432.003906 288.292969 L 408.019531 288.292969 Z M 408.019531 264.300781 " fill-opacity="1" fill-rule="nonzero"/><path fill="#f2f0f0" d="M 288.027344 288.292969 L 312.011719 288.292969 L 312.011719 312.289062 L 288.027344 312.289062 Z M 288.027344 288.292969 " fill-opacity="1" fill-rule="nonzero"/><path fill="#f2f0f0" d="M 335.996094 288.292969 L 359.980469 288.292969 L 359.980469 312.289062 L 335.996094 312.289062 Z M 335.996094 288.292969 " fill-opacity="1" fill-rule="nonzero"/><path fill="#f2f0f0" d="M 384.035156 288.292969 L 408.019531 288.292969 L 408.019531 312.289062 L 384.035156 312.289062 Z M 384.035156 288.292969 " fill-opacity="1" fill-rule="nonzero"/><path fill="#f2f0f0" d="M 312.011719 312.289062 L 335.996094 312.289062 L 335.996094 336.28125 L 312.011719 336.28125 Z M 312.011719 312.289062 " fill-opacity="1" fill-rule="nonzero"/><path fill="#f2f0f0" d="M 360.050781 312.289062 L 384.035156 312.289062 L 384.035156 336.28125 L 360.050781 336.28125 Z M 360.050781 312.289062 " fill-opacity="1" fill-rule="nonzero"/><path fill="#f2f0f0" d="M 408.019531 312.289062 L 432.003906 312.289062 L 432.003906 336.28125 L 408.019531 336.28125 Z M 408.019531 312.289062 " fill-opacity="1" fill-rule="nonzero"/><path fill="#f2f0f0" d="M 288.027344 336.351562 L 312.011719 336.351562 L 312.011719 360.347656 L 288.027344 360.347656 Z M 288.027344 336.351562 " fill-opacity="1" fill-rule="nonzero"/><path fill="#f2f0f0" d="M 335.996094 336.351562 L 359.980469 336.351562 L 359.980469 360.347656 L 335.996094 360.347656 Z M 335.996094 336.351562 " fill-opacity="1" fill-rule="nonzero"/><path fill="#f2f0f0" d="M 384.035156 336.351562 L 408.019531 336.351562 L 408.019531 360.347656 L 384.035156 360.347656 Z M 384.035156 336.351562 " fill-opacity="1" fill-rule="nonzero"/><path fill="#f2f0f0" d="M 312.011719 360.347656 L 335.996094 360.347656 L 335.996094 384.34375 L 312.011719 384.34375 Z M 312.011719 360.347656 " fill-opacity="1" fill-rule="nonzero"/><path fill="#f2f0f0" d="M 360.050781 360.347656 L 384.035156 360.347656 L 384.035156 384.34375 L 360.050781 384.34375 Z M 360.050781 360.347656 " fill-opacity="1" fill-rule="nonzero"/><path fill="#f2f0f0" d="M 408.019531 360.347656 L 432.003906 360.347656 L 432.003906 384.34375 L 408.019531 384.34375 Z M 408.019531 360.347656 " fill-opacity="1" fill-rule="nonzero"/><path fill="#f2f0f0" d="M 432.003906 192.246094 L 455.988281 192.246094 L 455.988281 216.238281 L 432.003906 216.238281 Z M 432.003906 192.246094 " fill-opacity="1" fill-rule="nonzero"/><path fill="#f2f0f0" d="M 480.046875 192.246094 L 504.027344 192.246094 L 504.027344 216.238281 L 480.046875 216.238281 Z M 480.046875 192.246094 " fill-opacity="1" fill-rule="nonzero"/><path fill="#f2f0f0" d="M 528.011719 192.246094 L 551.996094 192.246094 L 551.996094 216.238281 L 528.011719 216.238281 Z M 528.011719 192.246094 " fill-opacity="1" fill-rule="nonzero"/><path fill="#f2f0f0" d="M 456.0625 216.238281 L 480.046875 216.238281 L 480.046875 240.234375 L 456.0625 240.234375 Z M 456.0625 216.238281 " fill-opacity="1" fill-rule="nonzero"/><path fill="#f2f0f0" d="M 504.027344 216.238281 L 528.011719 216.238281 L 528.011719 240.234375 L 504.027344 240.234375 Z M 504.027344 216.238281 " fill-opacity="1" fill-rule="nonzero"/><path fill="#f2f0f0" d="M 551.996094 216.238281 L 575.980469 216.238281 L 575.980469 240.234375 L 551.996094 240.234375 Z M 551.996094 216.238281 " fill-opacity="1" fill-rule="nonzero"/><path fill="#f2f0f0" d="M 432.003906 240.234375 L 455.988281 240.234375 L 455.988281 264.226562 L 432.003906 264.226562 Z M 432.003906 240.234375 " fill-opacity="1" fill-rule="nonzero"/><path fill="#f2f0f0" d="M 480.046875 240.234375 L 504.027344 240.234375 L 504.027344 264.226562 L 480.046875 264.226562 Z M 480.046875 240.234375 " fill-opacity="1" fill-rule="nonzero"/><path fill="#f2f0f0" d="M 528.011719 240.234375 L 551.996094 240.234375 L 551.996094 264.226562 L 528.011719 264.226562 Z M 528.011719 240.234375 " fill-opacity="1" fill-rule="nonzero"/><path fill="#f2f0f0" d="M 456.0625 264.300781 L 480.046875 264.300781 L 480.046875 288.292969 L 456.0625 288.292969 Z M 456.0625 264.300781 " fill-opacity="1" fill-rule="nonzero"/><path fill="#f2f0f0" d="M 504.027344 264.300781 L 528.011719 264.300781 L 528.011719 288.292969 L 504.027344 288.292969 Z M 504.027344 264.300781 " fill-opacity="1" fill-rule="nonzero"/><path fill="#f2f0f0" d="M 551.996094 264.300781 L 575.980469 264.300781 L 575.980469 288.292969 L 551.996094 288.292969 Z M 551.996094 264.300781 " fill-opacity="1" fill-rule="nonzero"/><path fill="#f2f0f0" d="M 432.003906 288.292969 L 455.988281 288.292969 L 455.988281 312.289062 L 432.003906 312.289062 Z M 432.003906 288.292969 " fill-opacity="1" fill-rule="nonzero"/><path fill="#f2f0f0" d="M 480.046875 288.292969 L 504.027344 288.292969 L 504.027344 312.289062 L 480.046875 312.289062 Z M 480.046875 288.292969 " fill-opacity="1" fill-rule="nonzero"/><path fill="#f2f0f0" d="M 528.011719 288.292969 L 551.996094 288.292969 L 551.996094 312.289062 L 528.011719 312.289062 Z M 528.011719 288.292969 " fill-opacity="1" fill-rule="nonzero"/><path fill="#f2f0f0" d="M 456.0625 312.289062 L 480.046875 312.289062 L 480.046875 336.28125 L 456.0625 336.28125 Z M 456.0625 312.289062 " fill-opacity="1" fill-rule="nonzero"/><path fill="#f2f0f0" d="M 504.027344 312.289062 L 528.011719 312.289062 L 528.011719 336.28125 L 504.027344 336.28125 Z M 504.027344 312.289062 " fill-opacity="1" fill-rule="nonzero"/><path fill="#f2f0f0" d="M 551.996094 312.289062 L 575.980469 312.289062 L 575.980469 336.28125 L 551.996094 336.28125 Z M 551.996094 312.289062 " fill-opacity="1" fill-rule="nonzero"/><path fill="#f2f0f0" d="M 432.003906 336.351562 L 455.988281 336.351562 L 455.988281 360.347656 L 432.003906 360.347656 Z M 432.003906 336.351562 " fill-opacity="1" fill-rule="nonzero"/><path fill="#f2f0f0" d="M 480.046875 336.351562 L 504.027344 336.351562 L 504.027344 360.347656 L 480.046875 360.347656 Z M 480.046875 336.351562 " fill-opacity="1" fill-rule="nonzero"/><path fill="#f2f0f0" d="M 528.011719 336.351562 L 551.996094 336.351562 L 551.996094 360.347656 L 528.011719 360.347656 Z M 528.011719 336.351562 " fill-opacity="1" fill-rule="nonzero"/><path fill="#f2f0f0" d="M 456.0625 360.347656 L 480.046875 360.347656 L 480.046875 384.34375 L 456.0625 384.34375 Z M 456.0625 360.347656 " fill-opacity="1" fill-rule="nonzero"/><path fill="#f2f0f0" d="M 504.027344 360.347656 L 528.011719 360.347656 L 528.011719 384.34375 L 504.027344 384.34375 Z M 504.027344 360.347656 " fill-opacity="1" fill-rule="nonzero"/><path fill="#f2f0f0" d="M 551.996094 360.347656 L 575.980469 360.347656 L 575.980469 384.34375 L 551.996094 384.34375 Z M 551.996094 360.347656 " fill-opacity="1" fill-rule="nonzero"/><path fill="#f2f0f0" d="M 576.054688 192.246094 L 600.039062 192.246094 L 600.039062 216.238281 L 576.054688 216.238281 Z M 576.054688 192.246094 " fill-opacity="1" fill-rule="nonzero"/><path fill="#f2f0f0" d="M 624.023438 192.246094 L 648.007812 192.246094 L 648.007812 216.238281 L 624.023438 216.238281 Z M 624.023438 192.246094 " fill-opacity="1" fill-rule="nonzero"/><path fill="#f2f0f0" d="M 671.992188 192.246094 L 695.976562 192.246094 L 695.976562 216.238281 L 671.992188 216.238281 Z M 671.992188 192.246094 " fill-opacity="1" fill-rule="nonzero"/><path fill="#f2f0f0" d="M 600.039062 216.238281 L 624.023438 216.238281 L 624.023438 240.234375 L 600.039062 240.234375 Z M 600.039062 216.238281 " fill-opacity="1" fill-rule="nonzero"/><path fill="#f2f0f0" d="M 648.007812 216.238281 L 671.992188 216.238281 L 671.992188 240.234375 L 648.007812 240.234375 Z M 648.007812 216.238281 " fill-opacity="1" fill-rule="nonzero"/><path fill="#f2f0f0" d="M 696.046875 216.238281 L 720.03125 216.238281 L 720.03125 240.234375 L 696.046875 240.234375 Z M 696.046875 216.238281 " fill-opacity="1" fill-rule="nonzero"/><path fill="#f2f0f0" d="M 576.054688 240.234375 L 600.039062 240.234375 L 600.039062 264.226562 L 576.054688 264.226562 Z M 576.054688 240.234375 " fill-opacity="1" fill-rule="nonzero"/><path fill="#f2f0f0" d="M 624.023438 240.234375 L 648.007812 240.234375 L 648.007812 264.226562 L 624.023438 264.226562 Z M 624.023438 240.234375 " fill-opacity="1" fill-rule="nonzero"/><path fill="#f2f0f0" d="M 671.992188 240.234375 L 695.976562 240.234375 L 695.976562 264.226562 L 671.992188 264.226562 Z M 671.992188 240.234375 " fill-opacity="1" fill-rule="nonzero"/><path fill="#f2f0f0" d="M 600.039062 264.300781 L 624.023438 264.300781 L 624.023438 288.292969 L 600.039062 288.292969 Z M 600.039062 264.300781 " fill-opacity="1" fill-rule="nonzero"/><path fill="#f2f0f0" d="M 648.007812 264.300781 L 671.992188 264.300781 L 671.992188 288.292969 L 648.007812 288.292969 Z M 648.007812 264.300781 " fill-opacity="1" fill-rule="nonzero"/><path fill="#f2f0f0" d="M 696.046875 264.300781 L 720.03125 264.300781 L 720.03125 288.292969 L 696.046875 288.292969 Z M 696.046875 264.300781 " fill-opacity="1" fill-rule="nonzero"/><path fill="#f2f0f0" d="M 576.054688 288.292969 L 600.039062 288.292969 L 600.039062 312.289062 L 576.054688 312.289062 Z M 576.054688 288.292969 " fill-opacity="1" fill-rule="nonzero"/><path fill="#f2f0f0" d="M 624.023438 288.292969 L 648.007812 288.292969 L 648.007812 312.289062 L 624.023438 312.289062 Z M 624.023438 288.292969 " fill-opacity="1" fill-rule="nonzero"/><path fill="#f2f0f0" d="M 671.992188 288.292969 L 695.976562 288.292969 L 695.976562 312.289062 L 671.992188 312.289062 Z M 671.992188 288.292969 " fill-opacity="1" fill-rule="nonzero"/><path fill="#f2f0f0" d="M 600.039062 312.289062 L 624.023438 312.289062 L 624.023438 336.28125 L 600.039062 336.28125 Z M 600.039062 312.289062 " fill-opacity="1" fill-rule="nonzero"/><path fill="#f2f0f0" d="M 648.007812 312.289062 L 671.992188 312.289062 L 671.992188 336.28125 L 648.007812 336.28125 Z M 648.007812 312.289062 " fill-opacity="1" fill-rule="nonzero"/><path fill="#f2f0f0" d="M 696.046875 312.289062 L 720.03125 312.289062 L 720.03125 336.28125 L 696.046875 336.28125 Z M 696.046875 312.289062 " fill-opacity="1" fill-rule="nonzero"/><path fill="#f2f0f0" d="M 576.054688 336.351562 L 600.039062 336.351562 L 600.039062 360.347656 L 576.054688 360.347656 Z M 576.054688 336.351562 " fill-opacity="1" fill-rule="nonzero"/><path fill="#f2f0f0" d="M 624.023438 336.351562 L 648.007812 336.351562 L 648.007812 360.347656 L 624.023438 360.347656 Z M 624.023438 336.351562 " fill-opacity="1" fill-rule="nonzero"/><path fill="#f2f0f0" d="M 671.992188 336.351562 L 695.976562 336.351562 L 695.976562 360.347656 L 671.992188 360.347656 Z M 671.992188 336.351562 " fill-opacity="1" fill-rule="nonzero"/><path fill="#f2f0f0" d="M 600.039062 360.347656 L 624.023438 360.347656 L 624.023438 384.34375 L 600.039062 384.34375 Z M 600.039062 360.347656 " fill-opacity="1" fill-rule="nonzero"/><path fill="#f2f0f0" d="M 648.007812 360.347656 L 671.992188 360.347656 L 671.992188 384.34375 L 648.007812 384.34375 Z M 648.007812 360.347656 " fill-opacity="1" fill-rule="nonzero"/><path fill="#f2f0f0" d="M 696.046875 360.347656 L 720.03125 360.347656 L 720.03125 384.34375 L 696.046875 384.34375 Z M 696.046875 360.347656 " fill-opacity="1" fill-rule="nonzero"/><path fill="#f2f0f0" d="M 720.03125 192.246094 L 744.015625 192.246094 L 744.015625 216.238281 L 720.03125 216.238281 Z M 720.03125 192.246094 " fill-opacity="1" fill-rule="nonzero"/><path fill="#f2f0f0" d="M 744.015625 216.238281 L 768 216.238281 L 768 240.234375 L 744.015625 240.234375 Z M 744.015625 216.238281 " fill-opacity="1" fill-rule="nonzero"/><path fill="#f2f0f0" d="M 720.03125 240.234375 L 744.015625 240.234375 L 744.015625 264.226562 L 720.03125 264.226562 Z M 720.03125 240.234375 " fill-opacity="1" fill-rule="nonzero"/><path fill="#f2f0f0" d="M 744.015625 264.300781 L 768 264.300781 L 768 288.292969 L 744.015625 288.292969 Z M 744.015625 264.300781 " fill-opacity="1" fill-rule="nonzero"/><path fill="#f2f0f0" d="M 720.03125 288.292969 L 744.015625 288.292969 L 744.015625 312.289062 L 720.03125 312.289062 Z M 720.03125 288.292969 " fill-opacity="1" fill-rule="nonzero"/><path fill="#f2f0f0" d="M 744.015625 312.289062 L 768 312.289062 L 768 336.28125 L 744.015625 336.28125 Z M 744.015625 312.289062 " fill-opacity="1" fill-rule="nonzero"/><path fill="#f2f0f0" d="M 720.03125 336.351562 L 744.015625 336.351562 L 744.015625 360.347656 L 720.03125 360.347656 Z M 720.03125 336.351562 " fill-opacity="1" fill-rule="nonzero"/><path fill="#f2f0f0" d="M 744.015625 360.347656 L 768 360.347656 L 768 384.34375 L 744.015625 384.34375 Z M 744.015625 360.347656 " fill-opacity="1" fill-rule="nonzero"/><path fill="#f2f0f0" d="M 0 384.34375 L 23.984375 384.34375 L 23.984375 408.335938 L 0 408.335938 Z M 0 384.34375 " fill-opacity="1" fill-rule="nonzero"/><path fill="#f2f0f0" d="M 48.039062 384.34375 L 72.023438 384.34375 L 72.023438 408.335938 L 48.039062 408.335938 Z M 48.039062 384.34375 " fill-opacity="1" fill-rule="nonzero"/><path fill="#f2f0f0" d="M 96.007812 384.34375 L 119.992188 384.34375 L 119.992188 408.335938 L 96.007812 408.335938 Z M 96.007812 384.34375 " fill-opacity="1" fill-rule="nonzero"/><path fill="#f2f0f0" d="M 24.054688 408.40625 L 48.039062 408.40625 L 48.039062 432.402344 L 24.054688 432.402344 Z M 24.054688 408.40625 " fill-opacity="1" fill-rule="nonzero"/><path fill="#f2f0f0" d="M 72.023438 408.40625 L 96.007812 408.40625 L 96.007812 432.402344 L 72.023438 432.402344 Z M 72.023438 408.40625 " fill-opacity="1" fill-rule="nonzero"/><path fill="#f2f0f0" d="M 119.992188 408.40625 L 143.976562 408.40625 L 143.976562 432.402344 L 119.992188 432.402344 Z M 119.992188 408.40625 " fill-opacity="1" fill-rule="nonzero"/><path fill="#f2f0f0" d="M 0 432.402344 L 23.984375 432.402344 L 23.984375 456.394531 L 0 456.394531 Z M 0 432.402344 " fill-opacity="1" fill-rule="nonzero"/><path fill="#f2f0f0" d="M 48.039062 432.402344 L 72.023438 432.402344 L 72.023438 456.394531 L 48.039062 456.394531 Z M 48.039062 432.402344 " fill-opacity="1" fill-rule="nonzero"/><path fill="#f2f0f0" d="M 96.007812 432.402344 L 119.992188 432.402344 L 119.992188 456.394531 L 96.007812 456.394531 Z M 96.007812 432.402344 " fill-opacity="1" fill-rule="nonzero"/><path fill="#f2f0f0" d="M 24.054688 456.394531 L 48.039062 456.394531 L 48.039062 480.390625 L 24.054688 480.390625 Z M 24.054688 456.394531 " fill-opacity="1" fill-rule="nonzero"/><path fill="#f2f0f0" d="M 72.023438 456.394531 L 96.007812 456.394531 L 96.007812 480.390625 L 72.023438 480.390625 Z M 72.023438 456.394531 " fill-opacity="1" fill-rule="nonzero"/><path fill="#f2f0f0" d="M 119.992188 456.394531 L 143.976562 456.394531 L 143.976562 480.390625 L 119.992188 480.390625 Z M 119.992188 456.394531 " fill-opacity="1" fill-rule="nonzero"/><path fill="#f2f0f0" d="M 0 480.460938 L 23.984375 480.460938 L 23.984375 504.457031 L 0 504.457031 Z M 0 480.460938 " fill-opacity="1" fill-rule="nonzero"/><path fill="#f2f0f0" d="M 48.039062 480.460938 L 72.023438 480.460938 L 72.023438 504.457031 L 48.039062 504.457031 Z M 48.039062 480.460938 " fill-opacity="1" fill-rule="nonzero"/><path fill="#f2f0f0" d="M 96.007812 480.460938 L 119.992188 480.460938 L 119.992188 504.457031 L 96.007812 504.457031 Z M 96.007812 480.460938 " fill-opacity="1" fill-rule="nonzero"/><path fill="#f2f0f0" d="M 24.054688 504.457031 L 48.039062 504.457031 L 48.039062 528.449219 L 24.054688 528.449219 Z M 24.054688 504.457031 " fill-opacity="1" fill-rule="nonzero"/><path fill="#f2f0f0" d="M 72.023438 504.457031 L 96.007812 504.457031 L 96.007812 528.449219 L 72.023438 528.449219 Z M 72.023438 504.457031 " fill-opacity="1" fill-rule="nonzero"/><path fill="#f2f0f0" d="M 119.992188 504.457031 L 143.976562 504.457031 L 143.976562 528.449219 L 119.992188 528.449219 Z M 119.992188 504.457031 " fill-opacity="1" fill-rule="nonzero"/><path fill="#f2f0f0" d="M 0 528.449219 L 23.984375 528.449219 L 23.984375 552.445312 L 0 552.445312 Z M 0 528.449219 " fill-opacity="1" fill-rule="nonzero"/><path fill="#f2f0f0" d="M 48.039062 528.449219 L 72.023438 528.449219 L 72.023438 552.445312 L 48.039062 552.445312 Z M 48.039062 528.449219 " fill-opacity="1" fill-rule="nonzero"/><path fill="#f2f0f0" d="M 96.007812 528.449219 L 119.992188 528.449219 L 119.992188 552.445312 L 96.007812 552.445312 Z M 96.007812 528.449219 " fill-opacity="1" fill-rule="nonzero"/><path fill="#f2f0f0" d="M 24.054688 552.515625 L 48.039062 552.515625 L 48.039062 576.511719 L 24.054688 576.511719 Z M 24.054688 552.515625 " fill-opacity="1" fill-rule="nonzero"/><path fill="#f2f0f0" d="M 72.023438 552.515625 L 96.007812 552.515625 L 96.007812 576.511719 L 72.023438 576.511719 Z M 72.023438 552.515625 " fill-opacity="1" fill-rule="nonzero"/><path fill="#f2f0f0" d="M 119.992188 552.515625 L 143.976562 552.515625 L 143.976562 576.511719 L 119.992188 576.511719 Z M 119.992188 552.515625 " fill-opacity="1" fill-rule="nonzero"/><path fill="#f2f0f0" d="M 144.050781 384.34375 L 168.035156 384.34375 L 168.035156 408.335938 L 144.050781 408.335938 Z M 144.050781 384.34375 " fill-opacity="1" fill-rule="nonzero"/><path fill="#f2f0f0" d="M 192.019531 384.34375 L 216.003906 384.34375 L 216.003906 408.335938 L 192.019531 408.335938 Z M 192.019531 384.34375 " fill-opacity="1" fill-rule="nonzero"/><path fill="#f2f0f0" d="M 239.988281 384.34375 L 263.96875 384.34375 L 263.96875 408.335938 L 239.988281 408.335938 Z M 239.988281 384.34375 " fill-opacity="1" fill-rule="nonzero"/><path fill="#f2f0f0" d="M 168.035156 408.40625 L 192.019531 408.40625 L 192.019531 432.402344 L 168.035156 432.402344 Z M 168.035156 408.40625 " fill-opacity="1" fill-rule="nonzero"/><path fill="#f2f0f0" d="M 216.003906 408.40625 L 239.988281 408.40625 L 239.988281 432.402344 L 216.003906 432.402344 Z M 216.003906 408.40625 " fill-opacity="1" fill-rule="nonzero"/><path fill="#f2f0f0" d="M 264.042969 408.40625 L 288.027344 408.40625 L 288.027344 432.402344 L 264.042969 432.402344 Z M 264.042969 408.40625 " fill-opacity="1" fill-rule="nonzero"/><path fill="#f2f0f0" d="M 144.050781 432.402344 L 168.035156 432.402344 L 168.035156 456.394531 L 144.050781 456.394531 Z M 144.050781 432.402344 " fill-opacity="1" fill-rule="nonzero"/><path fill="#f2f0f0" d="M 192.019531 432.402344 L 216.003906 432.402344 L 216.003906 456.394531 L 192.019531 456.394531 Z M 192.019531 432.402344 " fill-opacity="1" fill-rule="nonzero"/><path fill="#f2f0f0" d="M 239.988281 432.402344 L 263.96875 432.402344 L 263.96875 456.394531 L 239.988281 456.394531 Z M 239.988281 432.402344 " fill-opacity="1" fill-rule="nonzero"/><path fill="#f2f0f0" d="M 168.035156 456.394531 L 192.019531 456.394531 L 192.019531 480.390625 L 168.035156 480.390625 Z M 168.035156 456.394531 " fill-opacity="1" fill-rule="nonzero"/><path fill="#f2f0f0" d="M 216.003906 456.394531 L 239.988281 456.394531 L 239.988281 480.390625 L 216.003906 480.390625 Z M 216.003906 456.394531 " fill-opacity="1" fill-rule="nonzero"/><path fill="#f2f0f0" d="M 264.042969 456.394531 L 288.027344 456.394531 L 288.027344 480.390625 L 264.042969 480.390625 Z M 264.042969 456.394531 " fill-opacity="1" fill-rule="nonzero"/><path fill="#f2f0f0" d="M 144.050781 480.460938 L 168.035156 480.460938 L 168.035156 504.457031 L 144.050781 504.457031 Z M 144.050781 480.460938 " fill-opacity="1" fill-rule="nonzero"/><path fill="#f2f0f0" d="M 192.019531 480.460938 L 216.003906 480.460938 L 216.003906 504.457031 L 192.019531 504.457031 Z M 192.019531 480.460938 " fill-opacity="1" fill-rule="nonzero"/><path fill="#f2f0f0" d="M 239.988281 480.460938 L 263.96875 480.460938 L 263.96875 504.457031 L 239.988281 504.457031 Z M 239.988281 480.460938 " fill-opacity="1" fill-rule="nonzero"/><path fill="#f2f0f0" d="M 168.035156 504.457031 L 192.019531 504.457031 L 192.019531 528.449219 L 168.035156 528.449219 Z M 168.035156 504.457031 " fill-opacity="1" fill-rule="nonzero"/><path fill="#f2f0f0" d="M 216.003906 504.457031 L 239.988281 504.457031 L 239.988281 528.449219 L 216.003906 528.449219 Z M 216.003906 504.457031 " fill-opacity="1" fill-rule="nonzero"/><path fill="#f2f0f0" d="M 264.042969 504.457031 L 288.027344 504.457031 L 288.027344 528.449219 L 264.042969 528.449219 Z M 264.042969 504.457031 " fill-opacity="1" fill-rule="nonzero"/><path fill="#f2f0f0" d="M 144.050781 528.449219 L 168.035156 528.449219 L 168.035156 552.445312 L 144.050781 552.445312 Z M 144.050781 528.449219 " fill-opacity="1" fill-rule="nonzero"/><path fill="#f2f0f0" d="M 192.019531 528.449219 L 216.003906 528.449219 L 216.003906 552.445312 L 192.019531 552.445312 Z M 192.019531 528.449219 " fill-opacity="1" fill-rule="nonzero"/><path fill="#f2f0f0" d="M 239.988281 528.449219 L 263.96875 528.449219 L 263.96875 552.445312 L 239.988281 552.445312 Z M 239.988281 528.449219 " fill-opacity="1" fill-rule="nonzero"/><path fill="#f2f0f0" d="M 168.035156 552.515625 L 192.019531 552.515625 L 192.019531 576.511719 L 168.035156 576.511719 Z M 168.035156 552.515625 " fill-opacity="1" fill-rule="nonzero"/><path fill="#f2f0f0" d="M 216.003906 552.515625 L 239.988281 552.515625 L 239.988281 576.511719 L 216.003906 576.511719 Z M 216.003906 552.515625 " fill-opacity="1" fill-rule="nonzero"/><path fill="#f2f0f0" d="M 264.042969 552.515625 L 288.027344 552.515625 L 288.027344 576.511719 L 264.042969 576.511719 Z M 264.042969 552.515625 " fill-opacity="1" fill-rule="nonzero"/><path fill="#f2f0f0" d="M 288.027344 384.34375 L 312.011719 384.34375 L 312.011719 408.335938 L 288.027344 408.335938 Z M 288.027344 384.34375 " fill-opacity="1" fill-rule="nonzero"/><path fill="#f2f0f0" d="M 335.996094 384.34375 L 359.980469 384.34375 L 359.980469 408.335938 L 335.996094 408.335938 Z M 335.996094 384.34375 " fill-opacity="1" fill-rule="nonzero"/><path fill="#f2f0f0" d="M 384.035156 384.34375 L 408.019531 384.34375 L 408.019531 408.335938 L 384.035156 408.335938 Z M 384.035156 384.34375 " fill-opacity="1" fill-rule="nonzero"/><path fill="#f2f0f0" d="M 312.011719 408.40625 L 335.996094 408.40625 L 335.996094 432.402344 L 312.011719 432.402344 Z M 312.011719 408.40625 " fill-opacity="1" fill-rule="nonzero"/><path fill="#f2f0f0" d="M 360.050781 408.40625 L 384.035156 408.40625 L 384.035156 432.402344 L 360.050781 432.402344 Z M 360.050781 408.40625 " fill-opacity="1" fill-rule="nonzero"/><path fill="#f2f0f0" d="M 408.019531 408.40625 L 432.003906 408.40625 L 432.003906 432.402344 L 408.019531 432.402344 Z M 408.019531 408.40625 " fill-opacity="1" fill-rule="nonzero"/><path fill="#f2f0f0" d="M 288.027344 432.402344 L 312.011719 432.402344 L 312.011719 456.394531 L 288.027344 456.394531 Z M 288.027344 432.402344 " fill-opacity="1" fill-rule="nonzero"/><path fill="#f2f0f0" d="M 335.996094 432.402344 L 359.980469 432.402344 L 359.980469 456.394531 L 335.996094 456.394531 Z M 335.996094 432.402344 " fill-opacity="1" fill-rule="nonzero"/><path fill="#f2f0f0" d="M 384.035156 432.402344 L 408.019531 432.402344 L 408.019531 456.394531 L 384.035156 456.394531 Z M 384.035156 432.402344 " fill-opacity="1" fill-rule="nonzero"/><path fill="#f2f0f0" d="M 312.011719 456.394531 L 335.996094 456.394531 L 335.996094 480.390625 L 312.011719 480.390625 Z M 312.011719 456.394531 " fill-opacity="1" fill-rule="nonzero"/><path fill="#f2f0f0" d="M 360.050781 456.394531 L 384.035156 456.394531 L 384.035156 480.390625 L 360.050781 480.390625 Z M 360.050781 456.394531 " fill-opacity="1" fill-rule="nonzero"/><path fill="#f2f0f0" d="M 408.019531 456.394531 L 432.003906 456.394531 L 432.003906 480.390625 L 408.019531 480.390625 Z M 408.019531 456.394531 " fill-opacity="1" fill-rule="nonzero"/><path fill="#f2f0f0" d="M 288.027344 480.460938 L 312.011719 480.460938 L 312.011719 504.457031 L 288.027344 504.457031 Z M 288.027344 480.460938 " fill-opacity="1" fill-rule="nonzero"/><path fill="#f2f0f0" d="M 335.996094 480.460938 L 359.980469 480.460938 L 359.980469 504.457031 L 335.996094 504.457031 Z M 335.996094 480.460938 " fill-opacity="1" fill-rule="nonzero"/><path fill="#f2f0f0" d="M 384.035156 480.460938 L 408.019531 480.460938 L 408.019531 504.457031 L 384.035156 504.457031 Z M 384.035156 480.460938 " fill-opacity="1" fill-rule="nonzero"/><path fill="#f2f0f0" d="M 312.011719 504.457031 L 335.996094 504.457031 L 335.996094 528.449219 L 312.011719 528.449219 Z M 312.011719 504.457031 " fill-opacity="1" fill-rule="nonzero"/><path fill="#f2f0f0" d="M 360.050781 504.457031 L 384.035156 504.457031 L 384.035156 528.449219 L 360.050781 528.449219 Z M 360.050781 504.457031 " fill-opacity="1" fill-rule="nonzero"/><path fill="#f2f0f0" d="M 408.019531 504.457031 L 432.003906 504.457031 L 432.003906 528.449219 L 408.019531 528.449219 Z M 408.019531 504.457031 " fill-opacity="1" fill-rule="nonzero"/><path fill="#f2f0f0" d="M 288.027344 528.449219 L 312.011719 528.449219 L 312.011719 552.445312 L 288.027344 552.445312 Z M 288.027344 528.449219 " fill-opacity="1" fill-rule="nonzero"/><path fill="#f2f0f0" d="M 335.996094 528.449219 L 359.980469 528.449219 L 359.980469 552.445312 L 335.996094 552.445312 Z M 335.996094 528.449219 " fill-opacity="1" fill-rule="nonzero"/><path fill="#f2f0f0" d="M 384.035156 528.449219 L 408.019531 528.449219 L 408.019531 552.445312 L 384.035156 552.445312 Z M 384.035156 528.449219 " fill-opacity="1" fill-rule="nonzero"/><path fill="#f2f0f0" d="M 312.011719 552.515625 L 335.996094 552.515625 L 335.996094 576.511719 L 312.011719 576.511719 Z M 312.011719 552.515625 " fill-opacity="1" fill-rule="nonzero"/><path fill="#f2f0f0" d="M 360.050781 552.515625 L 384.035156 552.515625 L 384.035156 576.511719 L 360.050781 576.511719 Z M 360.050781 552.515625 " fill-opacity="1" fill-rule="nonzero"/><path fill="#f2f0f0" d="M 408.019531 552.515625 L 432.003906 552.515625 L 432.003906 576.511719 L 408.019531 576.511719 Z M 408.019531 552.515625 " fill-opacity="1" fill-rule="nonzero"/><path fill="#f2f0f0" d="M 432.003906 384.34375 L 455.988281 384.34375 L 455.988281 408.335938 L 432.003906 408.335938 Z M 432.003906 384.34375 " fill-opacity="1" fill-rule="nonzero"/><path fill="#f2f0f0" d="M 480.046875 384.34375 L 504.027344 384.34375 L 504.027344 408.335938 L 480.046875 408.335938 Z M 480.046875 384.34375 " fill-opacity="1" fill-rule="nonzero"/><path fill="#f2f0f0" d="M 528.011719 384.34375 L 551.996094 384.34375 L 551.996094 408.335938 L 528.011719 408.335938 Z M 528.011719 384.34375 " fill-opacity="1" fill-rule="nonzero"/><path fill="#f2f0f0" d="M 456.0625 408.40625 L 480.046875 408.40625 L 480.046875 432.402344 L 456.0625 432.402344 Z M 456.0625 408.40625 " fill-opacity="1" fill-rule="nonzero"/><path fill="#f2f0f0" d="M 504.027344 408.40625 L 528.011719 408.40625 L 528.011719 432.402344 L 504.027344 432.402344 Z M 504.027344 408.40625 " fill-opacity="1" fill-rule="nonzero"/><path fill="#f2f0f0" d="M 551.996094 408.40625 L 575.980469 408.40625 L 575.980469 432.402344 L 551.996094 432.402344 Z M 551.996094 408.40625 " fill-opacity="1" fill-rule="nonzero"/><path fill="#f2f0f0" d="M 432.003906 432.402344 L 455.988281 432.402344 L 455.988281 456.394531 L 432.003906 456.394531 Z M 432.003906 432.402344 " fill-opacity="1" fill-rule="nonzero"/><path fill="#f2f0f0" d="M 480.046875 432.402344 L 504.027344 432.402344 L 504.027344 456.394531 L 480.046875 456.394531 Z M 480.046875 432.402344 " fill-opacity="1" fill-rule="nonzero"/><path fill="#f2f0f0" d="M 528.011719 432.402344 L 551.996094 432.402344 L 551.996094 456.394531 L 528.011719 456.394531 Z M 528.011719 432.402344 " fill-opacity="1" fill-rule="nonzero"/><path fill="#f2f0f0" d="M 456.0625 456.394531 L 480.046875 456.394531 L 480.046875 480.390625 L 456.0625 480.390625 Z M 456.0625 456.394531 " fill-opacity="1" fill-rule="nonzero"/><path fill="#f2f0f0" d="M 504.027344 456.394531 L 528.011719 456.394531 L 528.011719 480.390625 L 504.027344 480.390625 Z M 504.027344 456.394531 " fill-opacity="1" fill-rule="nonzero"/><path fill="#f2f0f0" d="M 551.996094 456.394531 L 575.980469 456.394531 L 575.980469 480.390625 L 551.996094 480.390625 Z M 551.996094 456.394531 " fill-opacity="1" fill-rule="nonzero"/><path fill="#f2f0f0" d="M 432.003906 480.460938 L 455.988281 480.460938 L 455.988281 504.457031 L 432.003906 504.457031 Z M 432.003906 480.460938 " fill-opacity="1" fill-rule="nonzero"/><path fill="#f2f0f0" d="M 480.046875 480.460938 L 504.027344 480.460938 L 504.027344 504.457031 L 480.046875 504.457031 Z M 480.046875 480.460938 " fill-opacity="1" fill-rule="nonzero"/><path fill="#f2f0f0" d="M 528.011719 480.460938 L 551.996094 480.460938 L 551.996094 504.457031 L 528.011719 504.457031 Z M 528.011719 480.460938 " fill-opacity="1" fill-rule="nonzero"/><path fill="#f2f0f0" d="M 456.0625 504.457031 L 480.046875 504.457031 L 480.046875 528.449219 L 456.0625 528.449219 Z M 456.0625 504.457031 " fill-opacity="1" fill-rule="nonzero"/><path fill="#f2f0f0" d="M 504.027344 504.457031 L 528.011719 504.457031 L 528.011719 528.449219 L 504.027344 528.449219 Z M 504.027344 504.457031 " fill-opacity="1" fill-rule="nonzero"/><path fill="#f2f0f0" d="M 551.996094 504.457031 L 575.980469 504.457031 L 575.980469 528.449219 L 551.996094 528.449219 Z M 551.996094 504.457031 " fill-opacity="1" fill-rule="nonzero"/><path fill="#f2f0f0" d="M 432.003906 528.449219 L 455.988281 528.449219 L 455.988281 552.445312 L 432.003906 552.445312 Z M 432.003906 528.449219 " fill-opacity="1" fill-rule="nonzero"/><path fill="#f2f0f0" d="M 480.046875 528.449219 L 504.027344 528.449219 L 504.027344 552.445312 L 480.046875 552.445312 Z M 480.046875 528.449219 " fill-opacity="1" fill-rule="nonzero"/><path fill="#f2f0f0" d="M 528.011719 528.449219 L 551.996094 528.449219 L 551.996094 552.445312 L 528.011719 552.445312 Z M 528.011719 528.449219 " fill-opacity="1" fill-rule="nonzero"/><path fill="#f2f0f0" d="M 456.0625 552.515625 L 480.046875 552.515625 L 480.046875 576.511719 L 456.0625 576.511719 Z M 456.0625 552.515625 " fill-opacity="1" fill-rule="nonzero"/><path fill="#f2f0f0" d="M 504.027344 552.515625 L 528.011719 552.515625 L 528.011719 576.511719 L 504.027344 576.511719 Z M 504.027344 552.515625 " fill-opacity="1" fill-rule="nonzero"/><path fill="#f2f0f0" d="M 551.996094 552.515625 L 575.980469 552.515625 L 575.980469 576.511719 L 551.996094 576.511719 Z M 551.996094 552.515625 " fill-opacity="1" fill-rule="nonzero"/><path fill="#f2f0f0" d="M 576.054688 384.34375 L 600.039062 384.34375 L 600.039062 408.335938 L 576.054688 408.335938 Z M 576.054688 384.34375 " fill-opacity="1" fill-rule="nonzero"/><path fill="#f2f0f0" d="M 624.023438 384.34375 L 648.007812 384.34375 L 648.007812 408.335938 L 624.023438 408.335938 Z M 624.023438 384.34375 " fill-opacity="1" fill-rule="nonzero"/><path fill="#f2f0f0" d="M 671.992188 384.34375 L 695.976562 384.34375 L 695.976562 408.335938 L 671.992188 408.335938 Z M 671.992188 384.34375 " fill-opacity="1" fill-rule="nonzero"/><path fill="#f2f0f0" d="M 600.039062 408.40625 L 624.023438 408.40625 L 624.023438 432.402344 L 600.039062 432.402344 Z M 600.039062 408.40625 " fill-opacity="1" fill-rule="nonzero"/><path fill="#f2f0f0" d="M 648.007812 408.40625 L 671.992188 408.40625 L 671.992188 432.402344 L 648.007812 432.402344 Z M 648.007812 408.40625 " fill-opacity="1" fill-rule="nonzero"/><path fill="#f2f0f0" d="M 696.046875 408.40625 L 720.03125 408.40625 L 720.03125 432.402344 L 696.046875 432.402344 Z M 696.046875 408.40625 " fill-opacity="1" fill-rule="nonzero"/><path fill="#f2f0f0" d="M 576.054688 432.402344 L 600.039062 432.402344 L 600.039062 456.394531 L 576.054688 456.394531 Z M 576.054688 432.402344 " fill-opacity="1" fill-rule="nonzero"/><path fill="#f2f0f0" d="M 624.023438 432.402344 L 648.007812 432.402344 L 648.007812 456.394531 L 624.023438 456.394531 Z M 624.023438 432.402344 " fill-opacity="1" fill-rule="nonzero"/><path fill="#f2f0f0" d="M 671.992188 432.402344 L 695.976562 432.402344 L 695.976562 456.394531 L 671.992188 456.394531 Z M 671.992188 432.402344 " fill-opacity="1" fill-rule="nonzero"/><path fill="#f2f0f0" d="M 600.039062 456.394531 L 624.023438 456.394531 L 624.023438 480.390625 L 600.039062 480.390625 Z M 600.039062 456.394531 " fill-opacity="1" fill-rule="nonzero"/><path fill="#f2f0f0" d="M 648.007812 456.394531 L 671.992188 456.394531 L 671.992188 480.390625 L 648.007812 480.390625 Z M 648.007812 456.394531 " fill-opacity="1" fill-rule="nonzero"/><path fill="#f2f0f0" d="M 696.046875 456.394531 L 720.03125 456.394531 L 720.03125 480.390625 L 696.046875 480.390625 Z M 696.046875 456.394531 " fill-opacity="1" fill-rule="nonzero"/><path fill="#f2f0f0" d="M 576.054688 480.460938 L 600.039062 480.460938 L 600.039062 504.457031 L 576.054688 504.457031 Z M 576.054688 480.460938 " fill-opacity="1" fill-rule="nonzero"/><path fill="#f2f0f0" d="M 624.023438 480.460938 L 648.007812 480.460938 L 648.007812 504.457031 L 624.023438 504.457031 Z M 624.023438 480.460938 " fill-opacity="1" fill-rule="nonzero"/><path fill="#f2f0f0" d="M 671.992188 480.460938 L 695.976562 480.460938 L 695.976562 504.457031 L 671.992188 504.457031 Z M 671.992188 480.460938 " fill-opacity="1" fill-rule="nonzero"/><path fill="#f2f0f0" d="M 600.039062 504.457031 L 624.023438 504.457031 L 624.023438 528.449219 L 600.039062 528.449219 Z M 600.039062 504.457031 " fill-opacity="1" fill-rule="nonzero"/><path fill="#f2f0f0" d="M 648.007812 504.457031 L 671.992188 504.457031 L 671.992188 528.449219 L 648.007812 528.449219 Z M 648.007812 504.457031 " fill-opacity="1" fill-rule="nonzero"/><path fill="#f2f0f0" d="M 696.046875 504.457031 L 720.03125 504.457031 L 720.03125 528.449219 L 696.046875 528.449219 Z M 696.046875 504.457031 " fill-opacity="1" fill-rule="nonzero"/><path fill="#f2f0f0" d="M 576.054688 528.449219 L 600.039062 528.449219 L 600.039062 552.445312 L 576.054688 552.445312 Z M 576.054688 528.449219 " fill-opacity="1" fill-rule="nonzero"/><path fill="#f2f0f0" d="M 624.023438 528.449219 L 648.007812 528.449219 L 648.007812 552.445312 L 624.023438 552.445312 Z M 624.023438 528.449219 " fill-opacity="1" fill-rule="nonzero"/><path fill="#f2f0f0" d="M 671.992188 528.449219 L 695.976562 528.449219 L 695.976562 552.445312 L 671.992188 552.445312 Z M 671.992188 528.449219 " fill-opacity="1" fill-rule="nonzero"/><path fill="#f2f0f0" d="M 600.039062 552.515625 L 624.023438 552.515625 L 624.023438 576.511719 L 600.039062 576.511719 Z M 600.039062 552.515625 " fill-opacity="1" fill-rule="nonzero"/><path fill="#f2f0f0" d="M 648.007812 552.515625 L 671.992188 552.515625 L 671.992188 576.511719 L 648.007812 576.511719 Z M 648.007812 552.515625 " fill-opacity="1" fill-rule="nonzero"/><path fill="#f2f0f0" d="M 696.046875 552.515625 L 720.03125 552.515625 L 720.03125 576.511719 L 696.046875 576.511719 Z M 696.046875 552.515625 " fill-opacity="1" fill-rule="nonzero"/><path fill="#f2f0f0" d="M 720.03125 384.34375 L 744.015625 384.34375 L 744.015625 408.335938 L 720.03125 408.335938 Z M 720.03125 384.34375 " fill-opacity="1" fill-rule="nonzero"/><path fill="#f2f0f0" d="M 744.015625 408.40625 L 768 408.40625 L 768 432.402344 L 744.015625 432.402344 Z M 744.015625 408.40625 " fill-opacity="1" fill-rule="nonzero"/><path fill="#f2f0f0" d="M 720.03125 432.402344 L 744.015625 432.402344 L 744.015625 456.394531 L 720.03125 456.394531 Z M 720.03125 432.402344 " fill-opacity="1" fill-rule="nonzero"/><path fill="#f2f0f0" d="M 744.015625 456.394531 L 768 456.394531 L 768 480.390625 L 744.015625 480.390625 Z M 744.015625 456.394531 " fill-opacity="1" fill-rule="nonzero"/><path fill="#f2f0f0" d="M 720.03125 480.460938 L 744.015625 480.460938 L 744.015625 504.457031 L 720.03125 504.457031 Z M 720.03125 480.460938 " fill-opacity="1" fill-rule="nonzero"/><path fill="#f2f0f0" d="M 744.015625 504.457031 L 768 504.457031 L 768 528.449219 L 744.015625 528.449219 Z M 744.015625 504.457031 " fill-opacity="1" fill-rule="nonzero"/><path fill="#f2f0f0" d="M 720.03125 528.449219 L 744.015625 528.449219 L 744.015625 552.445312 L 720.03125 552.445312 Z M 720.03125 528.449219 " fill-opacity="1" fill-rule="nonzero"/><path fill="#f2f0f0" d="M 744.015625 552.515625 L 768 552.515625 L 768 576.511719 L 744.015625 576.511719 Z M 744.015625 552.515625 " fill-opacity="1" fill-rule="nonzero"/><path fill="#f2f0f0" d="M 0 576.511719 L 23.984375 576.511719 L 23.984375 600.503906 L 0 600.503906 Z M 0 576.511719 " fill-opacity="1" fill-rule="nonzero"/><path fill="#f2f0f0" d="M 48.039062 576.511719 L 72.023438 576.511719 L 72.023438 600.503906 L 48.039062 600.503906 Z M 48.039062 576.511719 " fill-opacity="1" fill-rule="nonzero"/><path fill="#f2f0f0" d="M 96.007812 576.511719 L 119.992188 576.511719 L 119.992188 600.503906 L 96.007812 600.503906 Z M 96.007812 576.511719 " fill-opacity="1" fill-rule="nonzero"/><path fill="#f2f0f0" d="M 24.054688 600.503906 L 48.039062 600.503906 L 48.039062 624.5 L 24.054688 624.5 Z M 24.054688 600.503906 " fill-opacity="1" fill-rule="nonzero"/><path fill="#f2f0f0" d="M 72.023438 600.503906 L 96.007812 600.503906 L 96.007812 624.5 L 72.023438 624.5 Z M 72.023438 600.503906 " fill-opacity="1" fill-rule="nonzero"/><path fill="#f2f0f0" d="M 119.992188 600.503906 L 143.976562 600.503906 L 143.976562 624.5 L 119.992188 624.5 Z M 119.992188 600.503906 " fill-opacity="1" fill-rule="nonzero"/><path fill="#f2f0f0" d="M 0 624.570312 L 23.984375 624.570312 L 23.984375 648.566406 L 0 648.566406 Z M 0 624.570312 " fill-opacity="1" fill-rule="nonzero"/><path fill="#f2f0f0" d="M 48.039062 624.570312 L 72.023438 624.570312 L 72.023438 648.566406 L 48.039062 648.566406 Z M 48.039062 624.570312 " fill-opacity="1" fill-rule="nonzero"/><path fill="#f2f0f0" d="M 96.007812 624.570312 L 119.992188 624.570312 L 119.992188 648.566406 L 96.007812 648.566406 Z M 96.007812 624.570312 " fill-opacity="1" fill-rule="nonzero"/><path fill="#f2f0f0" d="M 24.054688 648.566406 L 48.039062 648.566406 L 48.039062 672.558594 L 24.054688 672.558594 Z M 24.054688 648.566406 " fill-opacity="1" fill-rule="nonzero"/><path fill="#f2f0f0" d="M 72.023438 648.566406 L 96.007812 648.566406 L 96.007812 672.558594 L 72.023438 672.558594 Z M 72.023438 648.566406 " fill-opacity="1" fill-rule="nonzero"/><path fill="#f2f0f0" d="M 119.992188 648.566406 L 143.976562 648.566406 L 143.976562 672.558594 L 119.992188 672.558594 Z M 119.992188 648.566406 " fill-opacity="1" fill-rule="nonzero"/><path fill="#f2f0f0" d="M 0 672.558594 L 23.984375 672.558594 L 23.984375 696.554688 L 0 696.554688 Z M 0 672.558594 " fill-opacity="1" fill-rule="nonzero"/><path fill="#f2f0f0" d="M 48.039062 672.558594 L 72.023438 672.558594 L 72.023438 696.554688 L 48.039062 696.554688 Z M 48.039062 672.558594 " fill-opacity="1" fill-rule="nonzero"/><path fill="#f2f0f0" d="M 96.007812 672.558594 L 119.992188 672.558594 L 119.992188 696.554688 L 96.007812 696.554688 Z M 96.007812 672.558594 " fill-opacity="1" fill-rule="nonzero"/><path fill="#f2f0f0" d="M 24.054688 696.625 L 48.039062 696.625 L 48.039062 720.621094 L 24.054688 720.621094 Z M 24.054688 696.625 " fill-opacity="1" fill-rule="nonzero"/><path fill="#f2f0f0" d="M 72.023438 696.625 L 96.007812 696.625 L 96.007812 720.621094 L 72.023438 720.621094 Z M 72.023438 696.625 " fill-opacity="1" fill-rule="nonzero"/><path fill="#f2f0f0" d="M 119.992188 696.625 L 143.976562 696.625 L 143.976562 720.621094 L 119.992188 720.621094 Z M 119.992188 696.625 " fill-opacity="1" fill-rule="nonzero"/><path fill="#f2f0f0" d="M 0 720.621094 L 23.984375 720.621094 L 23.984375 744.613281 L 0 744.613281 Z M 0 720.621094 " fill-opacity="1" fill-rule="nonzero"/><path fill="#f2f0f0" d="M 48.039062 720.621094 L 72.023438 720.621094 L 72.023438 744.613281 L 48.039062 744.613281 Z M 48.039062 720.621094 " fill-opacity="1" fill-rule="nonzero"/><path fill="#f2f0f0" d="M 96.007812 720.621094 L 119.992188 720.621094 L 119.992188 744.613281 L 96.007812 744.613281 Z M 96.007812 720.621094 " fill-opacity="1" fill-rule="nonzero"/><path fill="#f2f0f0" d="M 24.054688 744.613281 L 48.039062 744.613281 L 48.039062 768.609375 L 24.054688 768.609375 Z M 24.054688 744.613281 " fill-opacity="1" fill-rule="nonzero"/><path fill="#f2f0f0" d="M 72.023438 744.613281 L 96.007812 744.613281 L 96.007812 768.609375 L 72.023438 768.609375 Z M 72.023438 744.613281 " fill-opacity="1" fill-rule="nonzero"/><path fill="#f2f0f0" d="M 119.992188 744.613281 L 143.976562 744.613281 L 143.976562 768.609375 L 119.992188 768.609375 Z M 119.992188 744.613281 " fill-opacity="1" fill-rule="nonzero"/><path fill="#f2f0f0" d="M 144.050781 576.511719 L 168.035156 576.511719 L 168.035156 600.503906 L 144.050781 600.503906 Z M 144.050781 576.511719 " fill-opacity="1" fill-rule="nonzero"/><path fill="#f2f0f0" d="M 192.019531 576.511719 L 216.003906 576.511719 L 216.003906 600.503906 L 192.019531 600.503906 Z M 192.019531 576.511719 " fill-opacity="1" fill-rule="nonzero"/><path fill="#f2f0f0" d="M 239.988281 576.511719 L 263.96875 576.511719 L 263.96875 600.503906 L 239.988281 600.503906 Z M 239.988281 576.511719 " fill-opacity="1" fill-rule="nonzero"/><path fill="#f2f0f0" d="M 168.035156 600.503906 L 192.019531 600.503906 L 192.019531 624.5 L 168.035156 624.5 Z M 168.035156 600.503906 " fill-opacity="1" fill-rule="nonzero"/><path fill="#f2f0f0" d="M 216.003906 600.503906 L 239.988281 600.503906 L 239.988281 624.5 L 216.003906 624.5 Z M 216.003906 600.503906 " fill-opacity="1" fill-rule="nonzero"/><path fill="#f2f0f0" d="M 264.042969 600.503906 L 288.027344 600.503906 L 288.027344 624.5 L 264.042969 624.5 Z M 264.042969 600.503906 " fill-opacity="1" fill-rule="nonzero"/><path fill="#f2f0f0" d="M 144.050781 624.570312 L 168.035156 624.570312 L 168.035156 648.566406 L 144.050781 648.566406 Z M 144.050781 624.570312 " fill-opacity="1" fill-rule="nonzero"/><path fill="#f2f0f0" d="M 192.019531 624.570312 L 216.003906 624.570312 L 216.003906 648.566406 L 192.019531 648.566406 Z M 192.019531 624.570312 " fill-opacity="1" fill-rule="nonzero"/><path fill="#f2f0f0" d="M 239.988281 624.570312 L 263.96875 624.570312 L 263.96875 648.566406 L 239.988281 648.566406 Z M 239.988281 624.570312 " fill-opacity="1" fill-rule="nonzero"/><path fill="#f2f0f0" d="M 168.035156 648.566406 L 192.019531 648.566406 L 192.019531 672.558594 L 168.035156 672.558594 Z M 168.035156 648.566406 " fill-opacity="1" fill-rule="nonzero"/><path fill="#f2f0f0" d="M 216.003906 648.566406 L 239.988281 648.566406 L 239.988281 672.558594 L 216.003906 672.558594 Z M 216.003906 648.566406 " fill-opacity="1" fill-rule="nonzero"/><path fill="#f2f0f0" d="M 264.042969 648.566406 L 288.027344 648.566406 L 288.027344 672.558594 L 264.042969 672.558594 Z M 264.042969 648.566406 " fill-opacity="1" fill-rule="nonzero"/><path fill="#f2f0f0" d="M 144.050781 672.558594 L 168.035156 672.558594 L 168.035156 696.554688 L 144.050781 696.554688 Z M 144.050781 672.558594 " fill-opacity="1" fill-rule="nonzero"/><path fill="#f2f0f0" d="M 192.019531 672.558594 L 216.003906 672.558594 L 216.003906 696.554688 L 192.019531 696.554688 Z M 192.019531 672.558594 " fill-opacity="1" fill-rule="nonzero"/><path fill="#f2f0f0" d="M 239.988281 672.558594 L 263.96875 672.558594 L 263.96875 696.554688 L 239.988281 696.554688 Z M 239.988281 672.558594 " fill-opacity="1" fill-rule="nonzero"/><path fill="#f2f0f0" d="M 168.035156 696.625 L 192.019531 696.625 L 192.019531 720.621094 L 168.035156 720.621094 Z M 168.035156 696.625 " fill-opacity="1" fill-rule="nonzero"/><path fill="#f2f0f0" d="M 216.003906 696.625 L 239.988281 696.625 L 239.988281 720.621094 L 216.003906 720.621094 Z M 216.003906 696.625 " fill-opacity="1" fill-rule="nonzero"/><path fill="#f2f0f0" d="M 264.042969 696.625 L 288.027344 696.625 L 288.027344 720.621094 L 264.042969 720.621094 Z M 264.042969 696.625 " fill-opacity="1" fill-rule="nonzero"/><path fill="#f2f0f0" d="M 144.050781 720.621094 L 168.035156 720.621094 L 168.035156 744.613281 L 144.050781 744.613281 Z M 144.050781 720.621094 " fill-opacity="1" fill-rule="nonzero"/><path fill="#f2f0f0" d="M 192.019531 720.621094 L 216.003906 720.621094 L 216.003906 744.613281 L 192.019531 744.613281 Z M 192.019531 720.621094 " fill-opacity="1" fill-rule="nonzero"/><path fill="#f2f0f0" d="M 239.988281 720.621094 L 263.96875 720.621094 L 263.96875 744.613281 L 239.988281 744.613281 Z M 239.988281 720.621094 " fill-opacity="1" fill-rule="nonzero"/><path fill="#f2f0f0" d="M 168.035156 744.613281 L 192.019531 744.613281 L 192.019531 768.609375 L 168.035156 768.609375 Z M 168.035156 744.613281 " fill-opacity="1" fill-rule="nonzero"/><path fill="#f2f0f0" d="M 216.003906 744.613281 L 239.988281 744.613281 L 239.988281 768.609375 L 216.003906 768.609375 Z M 216.003906 744.613281 " fill-opacity="1" fill-rule="nonzero"/><path fill="#f2f0f0" d="M 264.042969 744.613281 L 288.027344 744.613281 L 288.027344 768.609375 L 264.042969 768.609375 Z M 264.042969 744.613281 " fill-opacity="1" fill-rule="nonzero"/><path fill="#f2f0f0" d="M 288.027344 576.511719 L 312.011719 576.511719 L 312.011719 600.503906 L 288.027344 600.503906 Z M 288.027344 576.511719 " fill-opacity="1" fill-rule="nonzero"/><path fill="#f2f0f0" d="M 335.996094 576.511719 L 359.980469 576.511719 L 359.980469 600.503906 L 335.996094 600.503906 Z M 335.996094 576.511719 " fill-opacity="1" fill-rule="nonzero"/><path fill="#f2f0f0" d="M 384.035156 576.511719 L 408.019531 576.511719 L 408.019531 600.503906 L 384.035156 600.503906 Z M 384.035156 576.511719 " fill-opacity="1" fill-rule="nonzero"/><path fill="#f2f0f0" d="M 312.011719 600.503906 L 335.996094 600.503906 L 335.996094 624.5 L 312.011719 624.5 Z M 312.011719 600.503906 " fill-opacity="1" fill-rule="nonzero"/><path fill="#f2f0f0" d="M 360.050781 600.503906 L 384.035156 600.503906 L 384.035156 624.5 L 360.050781 624.5 Z M 360.050781 600.503906 " fill-opacity="1" fill-rule="nonzero"/><path fill="#f2f0f0" d="M 408.019531 600.503906 L 432.003906 600.503906 L 432.003906 624.5 L 408.019531 624.5 Z M 408.019531 600.503906 " fill-opacity="1" fill-rule="nonzero"/><path fill="#f2f0f0" d="M 288.027344 624.570312 L 312.011719 624.570312 L 312.011719 648.566406 L 288.027344 648.566406 Z M 288.027344 624.570312 " fill-opacity="1" fill-rule="nonzero"/><path fill="#f2f0f0" d="M 335.996094 624.570312 L 359.980469 624.570312 L 359.980469 648.566406 L 335.996094 648.566406 Z M 335.996094 624.570312 " fill-opacity="1" fill-rule="nonzero"/><path fill="#f2f0f0" d="M 384.035156 624.570312 L 408.019531 624.570312 L 408.019531 648.566406 L 384.035156 648.566406 Z M 384.035156 624.570312 " fill-opacity="1" fill-rule="nonzero"/><path fill="#f2f0f0" d="M 312.011719 648.566406 L 335.996094 648.566406 L 335.996094 672.558594 L 312.011719 672.558594 Z M 312.011719 648.566406 " fill-opacity="1" fill-rule="nonzero"/><path fill="#f2f0f0" d="M 360.050781 648.566406 L 384.035156 648.566406 L 384.035156 672.558594 L 360.050781 672.558594 Z M 360.050781 648.566406 " fill-opacity="1" fill-rule="nonzero"/><path fill="#f2f0f0" d="M 408.019531 648.566406 L 432.003906 648.566406 L 432.003906 672.558594 L 408.019531 672.558594 Z M 408.019531 648.566406 " fill-opacity="1" fill-rule="nonzero"/><path fill="#f2f0f0" d="M 288.027344 672.558594 L 312.011719 672.558594 L 312.011719 696.554688 L 288.027344 696.554688 Z M 288.027344 672.558594 " fill-opacity="1" fill-rule="nonzero"/><path fill="#f2f0f0" d="M 335.996094 672.558594 L 359.980469 672.558594 L 359.980469 696.554688 L 335.996094 696.554688 Z M 335.996094 672.558594 " fill-opacity="1" fill-rule="nonzero"/><path fill="#f2f0f0" d="M 384.035156 672.558594 L 408.019531 672.558594 L 408.019531 696.554688 L 384.035156 696.554688 Z M 384.035156 672.558594 " fill-opacity="1" fill-rule="nonzero"/><path fill="#f2f0f0" d="M 312.011719 696.625 L 335.996094 696.625 L 335.996094 720.621094 L 312.011719 720.621094 Z M 312.011719 696.625 " fill-opacity="1" fill-rule="nonzero"/><path fill="#f2f0f0" d="M 360.050781 696.625 L 384.035156 696.625 L 384.035156 720.621094 L 360.050781 720.621094 Z M 360.050781 696.625 " fill-opacity="1" fill-rule="nonzero"/><path fill="#f2f0f0" d="M 408.019531 696.625 L 432.003906 696.625 L 432.003906 720.621094 L 408.019531 720.621094 Z M 408.019531 696.625 " fill-opacity="1" fill-rule="nonzero"/><path fill="#f2f0f0" d="M 288.027344 720.621094 L 312.011719 720.621094 L 312.011719 744.613281 L 288.027344 744.613281 Z M 288.027344 720.621094 " fill-opacity="1" fill-rule="nonzero"/><path fill="#f2f0f0" d="M 335.996094 720.621094 L 359.980469 720.621094 L 359.980469 744.613281 L 335.996094 744.613281 Z M 335.996094 720.621094 " fill-opacity="1" fill-rule="nonzero"/><path fill="#f2f0f0" d="M 384.035156 720.621094 L 408.019531 720.621094 L 408.019531 744.613281 L 384.035156 744.613281 Z M 384.035156 720.621094 " fill-opacity="1" fill-rule="nonzero"/><path fill="#f2f0f0" d="M 312.011719 744.613281 L 335.996094 744.613281 L 335.996094 768.609375 L 312.011719 768.609375 Z M 312.011719 744.613281 " fill-opacity="1" fill-rule="nonzero"/><path fill="#f2f0f0" d="M 360.050781 744.613281 L 384.035156 744.613281 L 384.035156 768.609375 L 360.050781 768.609375 Z M 360.050781 744.613281 " fill-opacity="1" fill-rule="nonzero"/><path fill="#f2f0f0" d="M 408.019531 744.613281 L 432.003906 744.613281 L 432.003906 768.609375 L 408.019531 768.609375 Z M 408.019531 744.613281 " fill-opacity="1" fill-rule="nonzero"/><path fill="#f2f0f0" d="M 432.003906 576.511719 L 455.988281 576.511719 L 455.988281 600.503906 L 432.003906 600.503906 Z M 432.003906 576.511719 " fill-opacity="1" fill-rule="nonzero"/><path fill="#f2f0f0" d="M 480.046875 576.511719 L 504.027344 576.511719 L 504.027344 600.503906 L 480.046875 600.503906 Z M 480.046875 576.511719 " fill-opacity="1" fill-rule="nonzero"/><path fill="#f2f0f0" d="M 528.011719 576.511719 L 551.996094 576.511719 L 551.996094 600.503906 L 528.011719 600.503906 Z M 528.011719 576.511719 " fill-opacity="1" fill-rule="nonzero"/><path fill="#f2f0f0" d="M 456.0625 600.503906 L 480.046875 600.503906 L 480.046875 624.5 L 456.0625 624.5 Z M 456.0625 600.503906 " fill-opacity="1" fill-rule="nonzero"/><path fill="#f2f0f0" d="M 504.027344 600.503906 L 528.011719 600.503906 L 528.011719 624.5 L 504.027344 624.5 Z M 504.027344 600.503906 " fill-opacity="1" fill-rule="nonzero"/><path fill="#f2f0f0" d="M 551.996094 600.503906 L 575.980469 600.503906 L 575.980469 624.5 L 551.996094 624.5 Z M 551.996094 600.503906 " fill-opacity="1" fill-rule="nonzero"/><path fill="#f2f0f0" d="M 432.003906 624.570312 L 455.988281 624.570312 L 455.988281 648.566406 L 432.003906 648.566406 Z M 432.003906 624.570312 " fill-opacity="1" fill-rule="nonzero"/><path fill="#f2f0f0" d="M 480.046875 624.570312 L 504.027344 624.570312 L 504.027344 648.566406 L 480.046875 648.566406 Z M 480.046875 624.570312 " fill-opacity="1" fill-rule="nonzero"/><path fill="#f2f0f0" d="M 528.011719 624.570312 L 551.996094 624.570312 L 551.996094 648.566406 L 528.011719 648.566406 Z M 528.011719 624.570312 " fill-opacity="1" fill-rule="nonzero"/><path fill="#f2f0f0" d="M 456.0625 648.566406 L 480.046875 648.566406 L 480.046875 672.558594 L 456.0625 672.558594 Z M 456.0625 648.566406 " fill-opacity="1" fill-rule="nonzero"/><path fill="#f2f0f0" d="M 504.027344 648.566406 L 528.011719 648.566406 L 528.011719 672.558594 L 504.027344 672.558594 Z M 504.027344 648.566406 " fill-opacity="1" fill-rule="nonzero"/><path fill="#f2f0f0" d="M 551.996094 648.566406 L 575.980469 648.566406 L 575.980469 672.558594 L 551.996094 672.558594 Z M 551.996094 648.566406 " fill-opacity="1" fill-rule="nonzero"/><path fill="#f2f0f0" d="M 432.003906 672.558594 L 455.988281 672.558594 L 455.988281 696.554688 L 432.003906 696.554688 Z M 432.003906 672.558594 " fill-opacity="1" fill-rule="nonzero"/><path fill="#f2f0f0" d="M 480.046875 672.558594 L 504.027344 672.558594 L 504.027344 696.554688 L 480.046875 696.554688 Z M 480.046875 672.558594 " fill-opacity="1" fill-rule="nonzero"/><path fill="#f2f0f0" d="M 528.011719 672.558594 L 551.996094 672.558594 L 551.996094 696.554688 L 528.011719 696.554688 Z M 528.011719 672.558594 " fill-opacity="1" fill-rule="nonzero"/><path fill="#f2f0f0" d="M 456.0625 696.625 L 480.046875 696.625 L 480.046875 720.621094 L 456.0625 720.621094 Z M 456.0625 696.625 " fill-opacity="1" fill-rule="nonzero"/><path fill="#f2f0f0" d="M 504.027344 696.625 L 528.011719 696.625 L 528.011719 720.621094 L 504.027344 720.621094 Z M 504.027344 696.625 " fill-opacity="1" fill-rule="nonzero"/><path fill="#f2f0f0" d="M 551.996094 696.625 L 575.980469 696.625 L 575.980469 720.621094 L 551.996094 720.621094 Z M 551.996094 696.625 " fill-opacity="1" fill-rule="nonzero"/><path fill="#f2f0f0" d="M 432.003906 720.621094 L 455.988281 720.621094 L 455.988281 744.613281 L 432.003906 744.613281 Z M 432.003906 720.621094 " fill-opacity="1" fill-rule="nonzero"/><path fill="#f2f0f0" d="M 480.046875 720.621094 L 504.027344 720.621094 L 504.027344 744.613281 L 480.046875 744.613281 Z M 480.046875 720.621094 " fill-opacity="1" fill-rule="nonzero"/><path fill="#f2f0f0" d="M 528.011719 720.621094 L 551.996094 720.621094 L 551.996094 744.613281 L 528.011719 744.613281 Z M 528.011719 720.621094 " fill-opacity="1" fill-rule="nonzero"/><path fill="#f2f0f0" d="M 456.0625 744.613281 L 480.046875 744.613281 L 480.046875 768.609375 L 456.0625 768.609375 Z M 456.0625 744.613281 " fill-opacity="1" fill-rule="nonzero"/><path fill="#f2f0f0" d="M 504.027344 744.613281 L 528.011719 744.613281 L 528.011719 768.609375 L 504.027344 768.609375 Z M 504.027344 744.613281 " fill-opacity="1" fill-rule="nonzero"/><path fill="#f2f0f0" d="M 551.996094 744.613281 L 575.980469 744.613281 L 575.980469 768.609375 L 551.996094 768.609375 Z M 551.996094 744.613281 " fill-opacity="1" fill-rule="nonzero"/><path fill="#f2f0f0" d="M 576.054688 576.511719 L 600.039062 576.511719 L 600.039062 600.503906 L 576.054688 600.503906 Z M 576.054688 576.511719 " fill-opacity="1" fill-rule="nonzero"/><path fill="#f2f0f0" d="M 624.023438 576.511719 L 648.007812 576.511719 L 648.007812 600.503906 L 624.023438 600.503906 Z M 624.023438 576.511719 " fill-opacity="1" fill-rule="nonzero"/><path fill="#f2f0f0" d="M 671.992188 576.511719 L 695.976562 576.511719 L 695.976562 600.503906 L 671.992188 600.503906 Z M 671.992188 576.511719 " fill-opacity="1" fill-rule="nonzero"/><path fill="#f2f0f0" d="M 600.039062 600.503906 L 624.023438 600.503906 L 624.023438 624.5 L 600.039062 624.5 Z M 600.039062 600.503906 " fill-opacity="1" fill-rule="nonzero"/><path fill="#f2f0f0" d="M 648.007812 600.503906 L 671.992188 600.503906 L 671.992188 624.5 L 648.007812 624.5 Z M 648.007812 600.503906 " fill-opacity="1" fill-rule="nonzero"/><path fill="#f2f0f0" d="M 696.046875 600.503906 L 720.03125 600.503906 L 720.03125 624.5 L 696.046875 624.5 Z M 696.046875 600.503906 " fill-opacity="1" fill-rule="nonzero"/><path fill="#f2f0f0" d="M 576.054688 624.570312 L 600.039062 624.570312 L 600.039062 648.566406 L 576.054688 648.566406 Z M 576.054688 624.570312 " fill-opacity="1" fill-rule="nonzero"/><path fill="#f2f0f0" d="M 624.023438 624.570312 L 648.007812 624.570312 L 648.007812 648.566406 L 624.023438 648.566406 Z M 624.023438 624.570312 " fill-opacity="1" fill-rule="nonzero"/><path fill="#f2f0f0" d="M 671.992188 624.570312 L 695.976562 624.570312 L 695.976562 648.566406 L 671.992188 648.566406 Z M 671.992188 624.570312 " fill-opacity="1" fill-rule="nonzero"/><path fill="#f2f0f0" d="M 600.039062 648.566406 L 624.023438 648.566406 L 624.023438 672.558594 L 600.039062 672.558594 Z M 600.039062 648.566406 " fill-opacity="1" fill-rule="nonzero"/><path fill="#f2f0f0" d="M 648.007812 648.566406 L 671.992188 648.566406 L 671.992188 672.558594 L 648.007812 672.558594 Z M 648.007812 648.566406 " fill-opacity="1" fill-rule="nonzero"/><path fill="#f2f0f0" d="M 696.046875 648.566406 L 720.03125 648.566406 L 720.03125 672.558594 L 696.046875 672.558594 Z M 696.046875 648.566406 " fill-opacity="1" fill-rule="nonzero"/><path fill="#f2f0f0" d="M 576.054688 672.558594 L 600.039062 672.558594 L 600.039062 696.554688 L 576.054688 696.554688 Z M 576.054688 672.558594 " fill-opacity="1" fill-rule="nonzero"/><path fill="#f2f0f0" d="M 624.023438 672.558594 L 648.007812 672.558594 L 648.007812 696.554688 L 624.023438 696.554688 Z M 624.023438 672.558594 " fill-opacity="1" fill-rule="nonzero"/><path fill="#f2f0f0" d="M 671.992188 672.558594 L 695.976562 672.558594 L 695.976562 696.554688 L 671.992188 696.554688 Z M 671.992188 672.558594 " fill-opacity="1" fill-rule="nonzero"/><path fill="#f2f0f0" d="M 600.039062 696.625 L 624.023438 696.625 L 624.023438 720.621094 L 600.039062 720.621094 Z M 600.039062 696.625 " fill-opacity="1" fill-rule="nonzero"/><path fill="#f2f0f0" d="M 648.007812 696.625 L 671.992188 696.625 L 671.992188 720.621094 L 648.007812 720.621094 Z M 648.007812 696.625 " fill-opacity="1" fill-rule="nonzero"/><path fill="#f2f0f0" d="M 696.046875 696.625 L 720.03125 696.625 L 720.03125 720.621094 L 696.046875 720.621094 Z M 696.046875 696.625 " fill-opacity="1" fill-rule="nonzero"/><path fill="#f2f0f0" d="M 576.054688 720.621094 L 600.039062 720.621094 L 600.039062 744.613281 L 576.054688 744.613281 Z M 576.054688 720.621094 " fill-opacity="1" fill-rule="nonzero"/><path fill="#f2f0f0" d="M 624.023438 720.621094 L 648.007812 720.621094 L 648.007812 744.613281 L 624.023438 744.613281 Z M 624.023438 720.621094 " fill-opacity="1" fill-rule="nonzero"/><path fill="#f2f0f0" d="M 671.992188 720.621094 L 695.976562 720.621094 L 695.976562 744.613281 L 671.992188 744.613281 Z M 671.992188 720.621094 " fill-opacity="1" fill-rule="nonzero"/><path fill="#f2f0f0" d="M 600.039062 744.613281 L 624.023438 744.613281 L 624.023438 768.609375 L 600.039062 768.609375 Z M 600.039062 744.613281 " fill-opacity="1" fill-rule="nonzero"/><path fill="#f2f0f0" d="M 648.007812 744.613281 L 671.992188 744.613281 L 671.992188 768.609375 L 648.007812 768.609375 Z M 648.007812 744.613281 " fill-opacity="1" fill-rule="nonzero"/><path fill="#f2f0f0" d="M 696.046875 744.613281 L 720.03125 744.613281 L 720.03125 768.609375 L 696.046875 768.609375 Z M 696.046875 744.613281 " fill-opacity="1" fill-rule="nonzero"/><path fill="#f2f0f0" d="M 720.03125 576.511719 L 744.015625 576.511719 L 744.015625 600.503906 L 720.03125 600.503906 Z M 720.03125 576.511719 " fill-opacity="1" fill-rule="nonzero"/><path fill="#f2f0f0" d="M 744.015625 600.503906 L 768 600.503906 L 768 624.5 L 744.015625 624.5 Z M 744.015625 600.503906 " fill-opacity="1" fill-rule="nonzero"/><path fill="#f2f0f0" d="M 720.03125 624.570312 L 744.015625 624.570312 L 744.015625 648.566406 L 720.03125 648.566406 Z M 720.03125 624.570312 " fill-opacity="1" fill-rule="nonzero"/><path fill="#f2f0f0" d="M 744.015625 648.566406 L 768 648.566406 L 768 672.558594 L 744.015625 672.558594 Z M 744.015625 648.566406 " fill-opacity="1" fill-rule="nonzero"/><path fill="#f2f0f0" d="M 720.03125 672.558594 L 744.015625 672.558594 L 744.015625 696.554688 L 720.03125 696.554688 Z M 720.03125 672.558594 " fill-opacity="1" fill-rule="nonzero"/><path fill="#f2f0f0" d="M 744.015625 696.625 L 768 696.625 L 768 720.621094 L 744.015625 720.621094 Z M 744.015625 696.625 " fill-opacity="1" fill-rule="nonzero"/><path fill="#f2f0f0" d="M 720.03125 720.621094 L 744.015625 720.621094 L 744.015625 744.613281 L 720.03125 744.613281 Z M 720.03125 720.621094 " fill-opacity="1" fill-rule="nonzero"/><path fill="#f2f0f0" d="M 744.015625 744.613281 L 768 744.613281 L 768 768.609375 L 744.015625 768.609375 Z M 744.015625 744.613281 " fill-opacity="1" fill-rule="nonzero"/></svg>